<?xml version="1.0" encoding="UTF-8" standalone="no"?>
<!DOCTYPE svg PUBLIC "-//W3C//DTD SVG 1.1//EN" "http://www.w3.org/Graphics/SVG/1.1/DTD/svg11.dtd">
<svg xmlns="http://www.w3.org/2000/svg" xmlns:xlink="http://www.w3.org/1999/xlink" version="1.1" width="500pt" height="500pt" viewBox="0 0 500 500">
<g enable-background="new">
<g id="Layer-1" data-name="Layer">
<clipPath id="cp0">
<path transform="matrix(1,0,0,-1,0,500)" d="M 0 500 L 500 500 L 500 0 L 0 0 Z "/>
</clipPath>
<g clip-path="url(#cp0)">
<path transform="matrix(1,0,0,-1,420.3994,221.52249)" d="M 0 0 C -18.001 -1.535 -34.377 -14.504 -39.842 -31.741 C -43.591 -42.845 -42.935 -55.369 -37.994 -65.998 C -34.13 -74.531 -27.606 -81.832 -19.56 -86.623 C -11.224 -91.636 -1.294 -93.935 8.402 -93.104 C 18.459 -92.304 28.196 -88.085 35.695 -81.345 C 42.694 -75.128 47.684 -66.72 49.898 -57.632 C 52.258 -48.063 51.47 -37.76 47.684 -28.654 C 43.381 -18.146 35.094 -9.329 24.832 -4.441 C 17.171 -.686 8.486 .764 0 0 " fill="#00cfb7"/>
<path transform="matrix(1,0,0,-1,332.5137,365.4521)" d="M 0 0 C -7.132 -2.943 -14.36 -5.705 -21.727 -8.011 C -9.19 -6.331 3.509 -2.744 16.207 -5.212 C 23.971 -6.56 31.03 -10.887 35.983 -16.983 C 32.703 -11.832 30.591 -6.078 27.949 -.602 C 26.391 2.6 23.778 5.946 19.896 6.043 C 12.771 6.344 6.397 2.582 0 0 M 2.539 38.752 C .132 33.149 -2.028 27.401 -3.082 21.365 C -3.659 18.157 -4.062 14.92 -4.346 11.676 C -4.749 7.229 -4.514 1.901 -8.511 -1.065 C -.62 1.794 6.807 6 15.076 7.752 C 18.169 8.456 21.588 9.467 24.615 7.98 C 26.649 7.054 27.618 4.917 28.713 3.111 C 32.271 -2.828 33.811 -9.762 37.681 -15.533 C 39.775 -18.802 42.868 -21.727 46.816 -22.437 C 54.863 -24.254 62.928 -21.04 69.97 -17.381 C 79.791 -12.013 88.597 -4.887 96.408 3.094 C 98.244 4.688 99.851 6.53 101.451 8.354 L 101.572 8.365 C 102.463 9.4 103.354 10.43 104.238 11.478 C 109.245 17.188 113.675 23.664 115.228 31.235 C 110.052 27.342 103.835 25.121 97.516 23.936 C 78.816 20.27 59.588 23.586 41.46 28.594 C 28.617 32.096 16.111 36.73 3.947 42.116 C 3.473 40.997 3.003 39.878 2.539 38.752 M 2.72 57.65 C 3.081 56.97 3.46 56.29 3.852 55.61 C 3.93 55.152 4.08 54.237 4.158 53.78 C 4.682 55.249 4.556 57.247 2.72 57.65 M -.193 57.638 C .445 56.134 .944 54.575 1.119 52.938 C 1.595 53.004 2.546 53.137 3.027 53.196 C 3.105 55.243 2.293 57.74 -.193 57.638 M -3.672 57.59 C -3.497 55.995 -3.395 54.388 -3.371 52.781 C -2.396 52.703 -1.427 52.619 -.439 52.534 C .439 54.821 -.921 57.849 -3.672 57.59 M 4.314 58.005 C 4.11 57.163 4.417 56.844 5.248 57.055 C 5.452 57.909 5.14 58.222 4.314 58.005 M -7.986 58.119 C -7.914 57.734 -7.776 56.976 -7.704 56.591 C -7.776 55.453 -7.849 54.316 -7.908 53.173 C -6.825 53.082 -5.742 52.992 -4.652 52.901 C -4.514 54.129 -4.43 55.363 -4.334 56.585 C -5.267 57.687 -6.633 57.976 -7.986 58.119 M -11.272 58.673 C -11.291 57.024 -11.333 55.381 -11.436 53.738 C -10.701 53.624 -9.967 53.504 -9.227 53.389 C -8.907 54.629 -8.492 55.929 -8.787 57.217 C -9.215 58.216 -10.376 58.366 -11.272 58.673 M -14.758 59.185 C -14.631 57.602 -14.686 56.007 -14.974 54.437 C -14.186 54.358 -13.392 54.273 -12.597 54.189 C -12.435 55.272 -12.235 56.356 -12.229 57.445 C -12.507 58.607 -13.854 58.739 -14.758 59.185 M -17.905 59.979 C -18.043 59.118 -18.176 58.252 -18.302 57.386 C -18.435 56.657 -18.567 55.929 -18.693 55.2 C -17.863 55.11 -17.026 55.026 -16.184 54.936 C -15.943 55.742 -15.696 56.555 -15.432 57.355 C -15.696 58.697 -16.653 59.57 -17.905 59.979 M -21.679 60.442 C -21.811 59.516 -21.932 58.589 -22.027 57.656 C -22.172 57.265 -22.461 56.494 -22.605 56.109 C -21.745 55.94 -20.884 55.772 -20.018 55.604 C -19.704 56.458 -19.386 57.313 -19.061 58.162 C -19.331 59.576 -20.234 60.406 -21.679 60.442 M -25.205 61.243 C -25.313 60.412 -25.416 59.576 -25.513 58.739 C -25.687 58.107 -25.861 57.476 -26.023 56.838 C -25.302 56.693 -24.573 56.543 -23.845 56.398 C -23.484 57.103 -23.123 57.801 -22.75 58.499 C -22.99 59.877 -23.616 61.207 -25.205 61.243 M -29.677 62.248 L -29.695 61.622 C -30.002 60.412 -30.303 59.197 -30.592 57.981 C -29.49 57.717 -28.371 57.518 -27.245 57.35 C -27.022 57.903 -26.794 58.45 -26.56 58.992 C -26.571 59.822 -26.649 60.635 -26.788 61.447 C -27.655 61.983 -28.72 62.008 -29.677 62.248 M -35.081 60.888 L -35.292 60.918 C -35.328 60.503 -35.406 59.666 -35.442 59.251 C -34.287 58.908 -33.126 58.601 -31.946 58.306 C -31.657 58.968 -31.362 59.624 -31.062 60.28 C -31.104 61.099 -31.146 61.911 -31.187 62.724 C -32.055 62.874 -32.909 63.066 -33.775 63.133 C -35.039 63.416 -34.66 61.586 -35.081 60.888 M -1.631 58.95 C .396 59.787 1.077 62.236 -.301 63.97 C -2.601 63.578 -1.258 60.551 -1.631 58.95 M -5.11 63.873 C -5.254 63.097 -5.387 62.32 -5.513 61.544 C -5.693 60.792 -5.868 60.039 -6.037 59.287 C -5.086 59.299 -4.123 59.312 -3.16 59.323 C -2.896 60.117 -2.624 60.912 -2.336 61.694 C -2.546 63.211 -3.642 63.945 -5.11 63.873 M -10.201 59.805 C -9.28 59.774 -8.33 59.51 -7.403 59.738 C -7.023 60.274 -6.663 60.822 -6.313 61.382 C -6.404 62.248 -6.482 63.115 -6.566 63.976 C -7.457 64.042 -8.348 64.096 -9.232 64.15 C -9.521 62.693 -9.841 61.243 -10.201 59.805 M .644 64.848 C 1.095 63.211 1.522 61.55 1.492 59.829 C 1.595 60.298 1.793 61.237 1.896 61.706 C 2.143 61.225 2.647 60.262 2.9 59.78 C 2.347 61.55 2.021 63.494 .644 64.848 M -12.32 64.716 C -12.591 63.319 -12.886 61.923 -13.198 60.533 C -12.513 60.587 -11.82 60.635 -11.128 60.678 C -10.773 61.814 -9.774 63.169 -10.604 64.307 C -11.177 64.469 -11.748 64.602 -12.32 64.716 M -39.048 64.541 C -39.126 64.265 -39.282 63.711 -39.366 63.434 C -39.661 62.404 -39.902 61.363 -40.131 60.311 C -38.687 59.961 -36.742 58.98 -36.159 61.002 C -36.044 61.894 -35.912 62.777 -35.773 63.662 C -36.869 63.957 -37.958 64.252 -39.048 64.541 M -15.516 65.624 C -15.714 64.15 -15.925 62.67 -16.172 61.201 C -15.769 61.195 -14.956 61.183 -14.547 61.177 C -13.938 62.278 -13.15 63.488 -13.596 64.8 C -14.228 65.101 -14.866 65.372 -15.516 65.624 M -42.58 65.197 C -42.833 63.819 -43.086 62.435 -43.314 61.051 C -42.749 61.032 -42.129 60.737 -41.558 60.93 C -40.721 62.134 -40.498 63.597 -40.372 65.022 C -41.112 65.083 -41.846 65.143 -42.58 65.197 M -18.435 66.425 C -19.024 64.938 -19.481 63.403 -19.867 61.851 C -19.097 61.827 -18.314 61.803 -17.532 61.772 C -17.177 62.688 -16.593 63.566 -16.562 64.571 C -16.484 65.667 -17.73 65.907 -18.435 66.425 M -46.914 66.545 C -47.202 65.715 -47.491 64.878 -47.774 64.042 C -47.763 63.597 -47.732 62.712 -47.714 62.267 C -46.697 62.037 -45.68 61.809 -44.663 61.58 C -44.458 62.146 -44.247 62.712 -44.031 63.266 C -44.037 64.132 -43.038 65.926 -44.633 65.949 C -45.385 66.19 -46.155 66.364 -46.914 66.545 M -22.118 67.153 C -22.461 65.601 -22.876 64.06 -23.357 62.543 C -22.647 62.501 -21.937 62.453 -21.221 62.404 C -20.619 63.476 -19.807 64.571 -19.909 65.871 C -20.307 66.702 -21.408 66.726 -22.118 67.153 M -26.824 63.367 C -23.863 61.719 -21.612 67.857 -25.338 67.875 C -25.741 66.347 -26.217 64.83 -26.824 63.367 M -51.704 67.737 C -52.077 67.057 -52.45 66.383 -52.823 65.703 C -52.787 65.083 -52.758 64.463 -52.661 63.843 C -51.518 63.338 -50.271 63.145 -49.05 62.91 C -49.002 63.271 -48.899 63.987 -48.852 64.349 C -48.646 65.209 -48.442 66.063 -48.237 66.925 C -49.387 67.22 -50.549 67.496 -51.704 67.737 M -30.694 64.282 C -29.743 64.258 -28.792 64.234 -27.835 64.204 C -27.161 65.384 -26.734 66.678 -26.638 68.038 C -27.667 68.291 -28.696 68.531 -29.719 68.76 C -30.141 67.292 -30.489 65.799 -30.694 64.282 M -57.355 67.105 C -57.313 66.636 -57.235 65.685 -57.193 65.209 C -56.176 64.933 -55.159 64.655 -54.13 64.385 C -53.979 64.98 -53.822 65.576 -53.66 66.172 C -53.479 66.853 -53.293 67.532 -53.106 68.206 C -54.075 68.471 -55.045 68.874 -56.056 68.862 C -56.705 68.478 -56.935 67.694 -57.355 67.105 M -34.384 69.88 C -34.847 68.447 -35.25 66.997 -35.557 65.517 C -34.563 65.329 -33.577 64.999 -32.548 65.053 C -31.446 66.1 -31.26 67.652 -30.94 69.049 C -32.091 69.338 -33.24 69.614 -34.384 69.88 M -60.864 68.742 C -60.906 67.256 -60.473 65.854 -58.764 65.799 C -58.487 67.033 -57.74 68.255 -57.879 69.53 C -58.438 69.801 -59.017 70.018 -59.612 70.187 C -60.027 69.699 -60.443 69.218 -60.864 68.742 M -39.054 70.963 C -39.354 69.897 -39.668 68.832 -40.034 67.785 C -40.552 65.89 -36.929 65.179 -36.418 66.984 C -36.159 68.098 -35.888 69.211 -35.642 70.325 C -36.785 70.548 -37.922 70.765 -39.054 70.963 M -64.607 70.211 C -64.397 69.332 -64.427 68.345 -63.994 67.532 C -63.434 67.328 -62.862 67.141 -62.278 66.973 C -61.875 68.255 -61.472 69.542 -61.093 70.83 C -62.363 71.161 -63.675 71.306 -64.607 70.211 M -44.019 72.185 C -44.26 70.704 -44.41 69.218 -44.519 67.725 C -43.537 67.508 -42.551 67.298 -41.563 67.087 C -41.082 68.52 -40.631 69.958 -40.239 71.408 C -41.491 71.715 -42.755 71.968 -44.019 72.185 M -68.177 70.62 C -68.851 69.037 -67.058 68.405 -65.871 68.134 C -65.505 69.435 -65.131 70.729 -64.746 72.028 C -66.112 72.569 -68.021 72.468 -68.177 70.62 M -49.2 68.982 C -48.111 68.712 -47.01 68.489 -45.896 68.284 C -45.571 69.717 -45.295 71.161 -45.036 72.605 C -46.161 72.9 -47.293 73.189 -48.412 73.473 C -49.021 72.052 -49.225 70.523 -49.2 68.982 M -70.512 73.912 C -71.149 72.799 -72.095 71.522 -71.421 70.192 C -70.843 69.897 -70.234 69.675 -69.621 69.428 C -69.182 70.686 -68.694 71.926 -68.158 73.142 C -68.94 73.4 -69.735 73.665 -70.512 73.912 M -53.04 74.586 C -53.456 73.184 -53.552 71.728 -53.462 70.271 C -52.559 70 -51.656 69.723 -50.747 69.452 C -50.38 70.951 -50.037 72.455 -49.694 73.96 C -50.808 74.183 -51.927 74.399 -53.04 74.586 M -55.087 70.596 C -54.762 72.059 -54.442 73.515 -54.124 74.977 C -54.804 75.206 -55.483 75.429 -56.158 75.651 C -57.199 74.014 -57.692 70.896 -55.087 70.596 M -75.02 73.033 C -75.362 71.728 -74.068 71.246 -73.189 70.674 C -72.612 72.088 -72.022 73.496 -71.45 74.905 C -72.955 75.627 -75.073 74.935 -75.02 73.033 M -59.51 76.542 C -59.955 75.922 -60.316 75.26 -60.605 74.544 L -60.774 74.634 C -60.895 72.883 -60.016 71.595 -58.21 71.342 C -58.15 71.968 -58.09 72.6 -58.029 73.226 C -57.807 74.177 -57.572 75.115 -57.331 76.061 C -58.06 76.241 -58.775 76.428 -59.51 76.542 M -78.841 76.512 C -78.968 75.657 -79.684 74.73 -79.232 73.899 C -78.401 73.237 -77.421 72.799 -76.488 72.293 C -76.308 72.913 -76.121 73.532 -75.94 74.146 C -75.477 74.826 -75.008 75.507 -74.538 76.187 C -75.898 77.023 -77.421 77.686 -78.841 76.512 M -63.146 77.149 C -64.223 76.169 -63.711 74.646 -63.723 73.376 C -63.049 73.117 -62.363 72.847 -61.677 72.576 C -61.412 74.183 -61.093 75.783 -60.731 77.378 C -61.496 77.349 -62.615 77.992 -63.146 77.149 M -134.577 74.58 C -152.56 67.629 -167.943 55.375 -186.083 48.749 C -163.315 51.62 -139.506 52.317 -117.54 44.704 C -106.911 41.081 -97.203 35.063 -88.91 27.528 C -80.201 19.644 -72.076 11.098 -64.571 2.059 C -67.677 8.546 -70.933 14.962 -73.786 21.563 C -79.257 33.673 -82.976 46.576 -89.65 58.126 C -93.869 65.426 -99.617 72.396 -107.597 75.682 C -116.228 79.28 -126.116 78.076 -134.577 74.58 M -66.895 77.421 C -66.792 76.476 -66.702 75.524 -66.611 74.574 C -66.215 74.357 -65.812 74.135 -65.408 73.912 C -65.047 75.494 -64.487 77.018 -63.831 78.492 C -65.089 79.105 -66.166 78.474 -66.895 77.421 M -82.476 78.618 C -82.837 77.956 -83.198 77.3 -83.487 76.602 C -83.198 75.585 -82.055 75.188 -81.183 74.797 C -80.237 75.02 -80.129 76.217 -79.611 76.903 C -79.269 77.234 -78.588 77.896 -78.251 78.227 C -79.509 79.208 -81.062 79.484 -82.476 78.618 M -84.823 80.814 C -85.853 80.207 -85.973 78.949 -86.256 77.908 C -85.732 77.728 -85.208 77.541 -84.679 77.354 C -83.878 78.889 -82.44 79.852 -81.092 80.851 C -82.314 81.073 -83.758 81.82 -84.823 80.814 M -72.154 82.103 C -72.816 81.537 -73.353 80.839 -73.906 80.171 C -73.973 79.4 -74.045 78.636 -74.11 77.859 C -73.238 77.433 -72.348 77.029 -71.444 76.662 C -71.246 77.691 -70.795 78.576 -70.091 79.316 C -70.15 78.306 -70.169 77.288 -70.15 76.271 C -69.615 75.711 -68.971 75.284 -68.363 74.809 C -68.321 75.465 -67.81 76.319 -68.104 76.867 C -67.646 77.817 -67.189 78.763 -66.732 79.714 C -67.623 79.93 -69.104 80.761 -69.368 79.262 L -70.379 79.353 L -70.145 80.357 L -69.705 81.037 C -70.5 81.44 -71.276 81.929 -72.154 82.103 M -87.592 80.021 C -86.153 80.821 -84.763 81.706 -83.469 82.723 C -85.407 83.09 -87.188 81.965 -87.592 80.021 M -77.457 82.271 C -78.215 80.526 -76.939 79.431 -75.579 78.534 C -75.267 79.214 -74.953 79.888 -74.646 80.568 C -74.165 81.381 -73.659 82.181 -73.147 82.976 C -73.684 83.396 -74.219 83.812 -74.749 84.228 C -75.682 83.619 -76.584 82.964 -77.457 82.271 M -80.821 85.708 C -80.292 85.329 -79.744 84.949 -79.221 84.54 C -79.942 83.571 -80.026 82.338 -79.244 81.404 C -78.083 82.843 -76.861 84.228 -75.699 85.666 C -76.313 85.636 -77.541 85.563 -78.155 85.527 C -78.522 85.78 -78.883 86.039 -79.238 86.292 C -78.498 86.635 -77.758 86.989 -77.029 87.363 C -78.534 87.478 -79.774 86.701 -80.821 85.708 M -93.562 88.224 C -91.823 87.008 -90.035 85.738 -87.995 85.07 C -86.906 85.311 -85.871 85.756 -84.823 86.142 C -87.73 86.869 -90.613 87.718 -93.562 88.224 M -70.139 90.366 L -70.042 90.3 C -71.522 89.354 -74.55 89.132 -74.207 86.797 L -73.924 86.773 C -69.861 82.597 -64.373 80.093 -58.992 78.053 C -44.825 73.353 -30.183 70.337 -15.702 66.804 C -11.183 65.582 -6.506 64.878 -1.83 64.788 C -4.466 68.995 -7.957 72.605 -11.73 75.796 C -16.96 80.074 -22.689 83.788 -28.805 86.659 L -28.647 86.707 C -37.724 91.034 -47.708 93.881 -57.837 93.514 C -62.11 93.339 -66.245 92.051 -70.139 90.366 M -104.66 94.699 C -102.511 90.035 -99.015 86.123 -95.572 82.367 C -94.038 80.978 -92.473 78.715 -90.096 79.461 C -90.174 80.599 -90.216 81.735 -90.21 82.867 C -93.171 85.112 -96.18 87.284 -98.973 89.734 C -99.851 90.559 -100.983 90.986 -102.036 91.51 C -102.71 92.737 -103.318 94.073 -104.66 94.699 M -98.076 95.084 C -97.492 94.206 -96.589 93.616 -95.801 92.936 C -95.741 92.496 -95.626 91.612 -95.572 91.173 C -91.925 89.782 -88.2 88.398 -84.294 87.982 C -83.385 87.694 -82.994 88.771 -82.374 89.192 C -87.459 90.89 -92.467 92.863 -97.239 95.295 C -97.45 95.241 -97.865 95.139 -98.076 95.084 M -106.7 101.482 C -106.586 101.103 -106.357 100.351 -106.243 99.978 C -105.208 99.671 -103.92 99.725 -103.155 98.84 C -101.921 97.594 -103.017 95.386 -101.609 94.29 C -100.634 94.176 -99.027 94.41 -99.376 95.765 C -101.386 96.547 -102.439 98.322 -102.903 100.351 C -104.046 101.085 -105.34 101.488 -106.7 101.482 M -102.325 108.006 C -101.488 105.899 -100.616 103.799 -99.55 101.795 C -97.883 101.494 -96.005 100.971 -95.813 98.99 C -94.567 98.189 -93.725 97.064 -93.652 95.536 C -89.193 93.719 -84.781 91.708 -80.033 90.764 C -87.454 96.522 -95.006 102.107 -102.325 108.006 M -111.467 115.529 C -111.021 112.345 -110.131 109.155 -108.307 106.465 C -107.091 106.393 -105.653 106.651 -104.69 105.713 C -104.106 104.811 -103.877 103.721 -103.486 102.722 C -102.782 102.343 -102.072 101.957 -101.362 101.584 C -102.632 104.143 -103.462 106.874 -104.407 109.553 C -106.55 111.768 -109.089 113.579 -111.467 115.529 M -116.149 119.597 C -115.758 113.049 -114.079 106.02 -109.48 101.115 C -109.595 102.619 -110.317 104.046 -110.083 105.58 C -111.792 108.626 -113.242 111.827 -114.157 115.21 C -114.663 116.732 -114.747 118.574 -116.149 119.597 M -115.896 130.527 C -116.161 128.209 -116.588 125.911 -116.859 123.6 C -117.07 122.63 -116.57 121.806 -115.644 121.487 C -115.577 124.502 -115.373 127.542 -115.896 130.527 M -115.427 133.036 C -115.908 132.398 -115.926 131.754 -115.487 131.099 C -114.614 131.008 -114.53 133.139 -115.427 133.036 M -181.557 142.082 C -184.452 136.509 -187.786 130.448 -193.72 127.656 C -187.78 125.52 -181.37 125.339 -175.135 125.754 C -174.208 125.833 -173.293 126.031 -172.421 126.344 C -171.639 127.494 -171.566 128.95 -171.235 130.262 C -170.11 136.593 -169.213 143.027 -169.472 149.479 C -169.749 153.457 -170.417 157.646 -172.884 160.907 C -175.966 154.727 -178.409 148.233 -181.557 142.082 M -216.192 161.533 C -215.464 160.396 -214.706 159.276 -214.026 158.109 L -213.942 158.145 C -213.586 157.333 -213.22 156.526 -212.834 155.72 L -212.708 156.021 C -211.974 154.348 -211.143 152.716 -210.421 151.037 L -210.433 150.917 L -210.084 150.532 C -207.791 145.236 -205.354 140 -202.826 134.806 C -201.375 132.549 -199.762 129.708 -196.801 129.395 C -193.618 129.335 -191.108 131.688 -189.092 133.891 C -186.287 137.249 -183.982 141.035 -182.195 145.025 C -183.272 144.851 -184.332 144.574 -185.378 144.272 L -185.228 143.833 C -185.673 143.827 -186.57 143.809 -187.021 143.803 L -186.835 144.562 L -187.581 144.254 L -187.551 144.887 C -189.706 145.302 -191.86 145.85 -193.858 146.776 C -195.387 147.504 -197.163 147.799 -198.384 149.069 L -198.475 149.382 C -199.521 149.864 -200.575 150.333 -201.64 150.772 C -203.175 152.307 -205.089 153.384 -206.87 154.606 L -206.629 154.907 C -206.93 155.003 -207.544 155.208 -207.851 155.304 C -208.008 155.485 -208.321 155.84 -208.477 156.021 L -208.669 155.954 C -209.885 156.954 -211.125 157.91 -212.389 158.837 C -213.653 159.74 -214.905 160.661 -216.192 161.533 M -171.175 162.857 C -168.268 157.278 -166.992 150.917 -167.426 144.646 C -167.979 136.702 -168.792 128.667 -171.392 121.09 C -174.918 110.654 -180.901 101.247 -187.647 92.611 C -186.167 96.18 -183.38 99.051 -182.068 102.71 C -181.027 104.401 -180.275 106.255 -179.384 108.03 C -182.989 104.425 -187.058 101.266 -191.607 98.937 L -191.649 98.815 C -198.125 95.74 -205.281 93.911 -212.479 94.248 C -220.068 94.711 -227.585 96.222 -234.79 98.642 C -245.002 102.065 -255.047 106.303 -263.979 112.388 C -270.424 116.732 -276.154 122.149 -280.691 128.468 C -281.943 130.292 -283.237 132.098 -284.591 133.855 C -283.881 130.864 -283.051 127.909 -282.413 124.905 C -280.271 114.855 -276.96 105.087 -272.994 95.614 C -267.698 82.801 -260.434 70.541 -250.311 60.942 L -250.305 60.846 C -244.533 55.345 -237.799 50.765 -230.288 48.009 C -224.961 46.101 -219.322 45.018 -213.653 45.054 C -205.654 44.987 -197.885 47.257 -190.35 49.706 C -174.9 55.104 -161.323 64.451 -146.783 71.757 C -145.404 72.449 -143.948 73.021 -142.714 73.966 L -142.732 73.966 C -139.537 74.917 -136.521 76.434 -133.434 77.697 C -131.688 78.047 -130.034 78.738 -128.336 79.262 C -121.349 81.073 -113.886 81.423 -106.923 79.305 C -102.56 77.673 -98.575 75.157 -95.193 71.95 C -89.903 66.623 -86.039 60.081 -82.988 53.274 C -78.173 42.255 -74.478 30.772 -69.519 19.818 C -66.269 11.501 -62.363 3.358 -57.397 -4.093 C -56.688 -5.007 -56.116 -6.229 -54.894 -6.554 C -51.813 -7.541 -48.646 -8.407 -45.403 -8.648 C -36.388 -9.467 -27.18 -7.878 -18.832 -4.424 C -15.215 -2.799 -11.55 -1.083 -8.492 1.492 C -7.06 2.636 -6.608 4.502 -6.386 6.235 C -5.802 10.772 -5.447 15.335 -4.725 19.849 C -3.726 26.396 -1.438 32.674 1.264 38.692 C .229 39.733 -.843 40.974 -2.39 41.172 C -5.098 41.605 -7.433 39.859 -9.383 38.229 C -9.552 38.145 -9.895 37.982 -10.063 37.897 C -8.57 39.673 -7.102 41.473 -5.447 43.104 C -5.183 44.578 -4.376 45.806 -3.322 46.859 C -2.047 47.617 -.704 48.298 .764 48.61 L -1.818 46.137 C .102 47.076 2.07 48.039 4.141 48.646 C 4.164 49.435 4.188 50.224 4.213 51.006 C -3.299 50.091 -10.779 51.68 -18.098 53.196 C -31.266 56.104 -44.416 59.221 -57.241 63.428 C -67.142 66.636 -77.265 69.783 -85.979 75.639 C -87.315 76.439 -88.326 77.975 -90.029 77.938 C -94.651 78.089 -99.093 79.647 -103.715 79.828 C -101.639 80.129 -99.532 79.858 -97.444 79.815 C -100.748 83.596 -103.553 87.778 -105.996 92.153 L -106.038 92.147 C -106.827 93.736 -107.898 95.145 -109.065 96.469 C -109.896 97.137 -109.089 98.467 -109.896 99.129 C -115.884 104.744 -117.69 113.32 -118.087 121.204 C -128.415 130.117 -138.459 139.35 -148.642 148.431 C -155.371 154.305 -162.617 159.944 -171.175 162.857 M -231.232 166.998 C -234.374 166.607 -237.299 165.325 -240.248 164.248 C -236.294 163.953 -232.322 163.598 -228.488 162.539 L -228.579 162.177 C -228.458 162.226 -228.211 162.316 -228.085 162.358 C -223.493 161.22 -219.316 158.873 -215.524 156.093 C -216.662 158.109 -218.01 160.041 -219.768 161.569 C -220.508 162.521 -221.302 163.417 -222.103 164.314 C -222.277 164.386 -222.626 164.537 -222.801 164.609 C -223.029 164.819 -223.487 165.241 -223.709 165.451 C -224.251 165.674 -224.775 165.933 -225.334 166.065 C -225.599 166.306 -226.123 166.781 -226.388 167.022 L -226.936 166.848 C -227.206 166.866 -227.754 166.908 -228.031 166.926 L -228.127 167.449 C -229.168 167.317 -230.204 167.185 -231.232 166.998 M -296.899 159.06 C -299.902 148.925 -301.913 138.423 -301.985 127.824 C -302.189 115.234 -298.71 102.518 -291.615 92.063 C -280.186 74.869 -263.389 61.688 -244.979 52.631 C -247.639 54.779 -250.305 56.934 -252.543 59.528 C -256.311 63.59 -260.289 67.532 -263.25 72.257 C -272.122 86.388 -278.856 101.849 -283.292 117.93 C -287.805 135.606 -289.743 153.788 -292.313 171.813 C -294.251 167.72 -295.593 163.381 -296.899 159.06 M -86.9 180.696 C -92.328 173.107 -97.293 165.199 -102.325 157.338 C -96.156 164.338 -89.488 171.482 -86.9 180.696 M -75.729 204.553 C -76.65 197.957 -79.695 191.926 -83.205 186.353 C -85.052 183.615 -84.859 180.142 -86.184 177.175 C -90.908 164.627 -102.632 156.61 -108.518 144.73 C -112.773 136.708 -113.2 127.247 -111.888 118.424 C -109.619 116.51 -107.404 114.53 -105.027 112.748 C -105.875 123.853 -102.77 135.095 -96.565 144.315 C -90.728 153.144 -82.193 159.62 -75.128 167.371 C -71.535 171.421 -68.213 176.043 -67.142 181.46 C -65.354 189.958 -68.917 199.227 -75.729 204.553 M -86.815 252.64 C -85.094 254.048 -83.271 255.36 -81.212 256.239 C -83.716 252.278 -86.954 248.746 -88.717 244.358 C -87.207 245.52 -85.552 246.567 -83.62 246.814 C -85.136 245.592 -87.038 244.635 -87.803 242.728 C -89.494 239.357 -87.309 235.481 -89.012 232.117 C -87.863 230.131 -86.773 228.079 -86.322 225.804 C -82.548 223.18 -78.932 219.972 -77.21 215.59 C -76.019 212.846 -75.585 209.831 -75.591 206.852 C -69.248 201.772 -64.74 193.937 -65.035 185.655 C -64.921 178.367 -68.862 171.752 -73.623 166.517 C -80.153 159.271 -87.977 153.216 -93.803 145.332 C -100.194 136.485 -104.04 125.531 -103.336 114.548 C -103.222 112.898 -103.228 110.883 -101.657 109.884 C -93.021 103.167 -84.546 96.186 -75.423 90.125 C -70.361 92.863 -64.86 95.235 -59.022 95.386 C -49.567 95.723 -40.186 93.381 -31.555 89.632 C -21.877 85.389 -12.928 79.389 -5.592 71.757 C -4.279 70.457 -3.256 68.862 -1.775 67.749 C 0 66.768 1.962 66.004 3.315 64.427 C 5.193 62.724 5.104 59.974 6.439 57.939 C 7.661 55.959 7.45 53.16 5.494 51.728 C 5.561 49.044 5.146 46.39 4.76 43.741 C 17.483 38.909 30.176 33.901 43.296 30.242 C 56.079 26.944 69.199 24.453 82.445 24.519 C 93.381 24.519 104.671 26.933 113.765 33.258 C 116.106 34.805 117.918 36.965 119.819 38.999 C 120.163 32.229 116.756 26.09 113.428 20.45 C 108.258 12.193 101.608 4.978 94.572 -1.715 C 85.87 -9.521 76.649 -17.104 65.841 -21.805 C 59.004 -24.657 51.24 -26.463 43.916 -24.531 C 36.104 -22.226 32.029 -14.3 24.874 -10.899 C 16.61 -6.645 6.951 -6.271 -2.106 -7.379 C -11.453 -8.961 -20.872 -10.051 -30.249 -11.387 C -34.805 -12.127 -39.396 -12.555 -43.982 -13.029 C -46.191 -13.223 -48.418 -13.096 -50.591 -12.711 C -53.154 -12.133 -55.291 -10.43 -57.036 -8.54 C -61.725 -3.418 -66.124 1.956 -70.921 6.976 C -78.564 14.589 -85.847 22.629 -94.375 29.285 C -103.715 36.778 -114.843 41.864 -126.464 44.603 C -143.009 48.593 -160.24 48.357 -177.061 46.54 C -188.087 45.493 -199.07 44.03 -210.042 42.55 C -214.887 41.821 -219.78 42.646 -224.528 43.598 C -240.651 47.105 -255.487 55.171 -268.462 65.209 C -277.779 72.504 -286.277 80.978 -292.957 90.775 C -300.45 101.795 -304.332 115.125 -304.139 128.438 C -303.922 142.19 -300.829 155.786 -296.225 168.708 C -294.474 173.197 -292.686 177.795 -289.737 181.665 C -288.865 168.105 -287.667 154.546 -285.651 141.107 C -285.151 138.302 -283.406 135.979 -281.985 133.584 C -277.171 125.64 -270.623 118.767 -262.943 113.537 C -253.404 107.248 -242.824 102.638 -231.889 99.382 C -222.439 96.601 -212.305 94.693 -202.531 96.866 C -192.179 99.171 -182.64 105.532 -177.025 114.59 C -175.153 117.557 -173.872 120.843 -172.794 124.165 C -179.276 122.558 -186.227 121.933 -192.673 124.039 C -196.175 125.225 -199.907 126.759 -202.091 129.901 C -205.546 135.456 -208.212 141.438 -210.993 147.342 C -215.001 155.473 -223.565 160.546 -232.322 161.949 C -237.371 162.93 -242.535 162.984 -247.639 162.526 C -245.635 164.248 -243.119 165.163 -240.784 166.33 C -236.974 168.027 -233.014 170.013 -228.717 169.682 C -226.713 169.658 -224.871 168.743 -223.204 167.708 C -216.505 163.423 -210.06 158.765 -203.536 154.227 C -197.277 149.948 -190.115 146.21 -182.333 146.343 C -182.141 146.458 -181.761 146.68 -181.575 146.794 C -179.222 152.397 -177.609 158.313 -174.997 163.814 C -174.66 164.723 -173.528 164.477 -172.776 164.542 C -170.615 164.555 -168.545 163.838 -166.607 162.936 C -158.976 159.354 -152.295 154.095 -146.012 148.54 C -136.732 140.21 -127.47 131.863 -118.141 123.6 C -117.371 135.829 -113.182 147.438 -109.704 159.078 C -107.681 165.951 -105.689 173.041 -106.195 180.281 C -106.459 184.361 -107.886 188.634 -111.13 191.312 C -114.35 194.057 -118.575 195.158 -122.661 195.82 C -123.016 194.983 -122.709 193.347 -123.955 193.238 C -126.597 193.292 -129.263 193.244 -131.688 192.053 C -133.416 188.454 -137.581 187.16 -139.892 184.054 C -141.823 181.845 -142.383 178.77 -141.854 175.941 C -142.672 177.308 -143.033 178.866 -143.208 180.431 C -144.989 176.977 -143.894 172.391 -146.506 169.165 C -146.566 171.873 -146.439 174.575 -146.47 177.277 C -146.716 176.291 -146.939 175.292 -147.204 174.304 C -147.42 175.899 -147.571 177.5 -147.788 179.095 C -148.173 177.579 -148.516 176.05 -149.045 174.575 C -149.25 177.29 -149.726 179.974 -150.105 182.664 C -150.502 185.872 -148.811 188.803 -146.729 191.09 C -148.088 191.258 -149.431 191.511 -150.725 191.95 C -148.6 192.492 -146.325 192.763 -144.465 194.021 C -142.203 195.513 -140.181 197.71 -137.34 198.023 C -136.028 198.275 -134.782 197.71 -133.572 197.283 C -133.295 197.583 -132.748 198.191 -132.471 198.498 C -132.104 198.516 -131.364 198.559 -130.997 198.583 C -128.8 199.509 -126.398 198.595 -124.105 198.667 C -122.601 197.283 -120.44 197.439 -118.581 196.916 C -113.453 195.778 -108.47 192.708 -106.237 187.792 C -103.366 181.484 -104.203 174.256 -105.533 167.666 C -108.084 156.207 -112.676 145.29 -114.897 133.752 C -110.817 147.42 -103.047 159.547 -95.38 171.434 C -92.695 175.538 -89.903 179.57 -87.062 183.573 C -85.534 185.535 -86.033 188.189 -86.358 190.458 C -87.123 195.134 -90.102 199.203 -93.923 201.893 C -97.703 204.619 -102.21 206.021 -106.61 207.405 C -106.977 206.894 -107.338 206.382 -107.699 205.865 C -109.715 206.082 -111.744 205.991 -113.76 205.937 C -117.154 202.916 -121.933 205.738 -125.809 204.131 C -127.975 203.542 -129.359 201.706 -130.653 200.015 C -130.262 201.044 -129.847 202.073 -129.437 203.096 C -133 200.966 -136.816 198.908 -141.017 198.492 C -137.55 200.695 -134.457 203.397 -131.364 206.082 C -134.282 205.51 -136.022 202.934 -138.134 201.104 C -137.839 204.336 -135.625 206.828 -133.434 209.006 C -135.149 208.627 -136.924 208.615 -138.525 209.397 C -136.924 209.656 -135.161 209.524 -133.741 210.433 C -132.164 211.384 -130.653 212.449 -128.999 213.268 C -129.793 213.978 -130.539 214.718 -131.225 215.518 C -129.028 214.598 -126.711 213.67 -124.274 214.056 C -120.524 214.285 -116.004 215.235 -113.122 212.154 C -110.161 211.751 -107.651 210.072 -105.057 208.748 C -98.66 207.044 -92.118 204.209 -88.049 198.751 C -85.654 195.712 -84.535 191.896 -84.246 188.081 C -80.671 193.383 -78.143 199.425 -77.294 205.78 C -80.117 207.983 -83.403 209.488 -86.743 210.709 C -88.892 211.414 -91.155 212.244 -93.442 211.745 C -94.808 212.744 -96.174 213.767 -97.733 214.465 C -97.889 214.694 -98.214 215.157 -98.377 215.392 C -101.627 215.253 -104.016 217.751 -106.796 219.009 C -108.939 220.225 -111.389 220.55 -113.796 220.809 C -112.58 221.314 -111.334 221.729 -110.07 222.096 C -112.905 223.583 -115.74 225.744 -116.643 228.969 C -116.992 229.662 -116.275 230.179 -115.987 230.727 C -115.102 229.655 -114.199 228.596 -113.212 227.621 C -113.543 231.232 -115.89 234.223 -118.539 236.517 C -116.317 236.57 -114.091 235.963 -112.303 234.621 C -109.884 232.947 -108.524 230.27 -106.52 228.193 C -107.206 229.649 -108.079 231.003 -108.819 232.424 C -107.513 231.587 -106.55 230.366 -105.635 229.144 C -105.226 229.252 -104.816 229.36 -104.407 229.469 C -103.408 226.622 -100.802 224.991 -98.593 223.167 C -97.149 222.042 -96.517 220.285 -96 218.594 C -93.634 217.745 -92.425 215.404 -90.697 213.761 C -86.045 212.376 -81.447 210.716 -77.324 208.098 C -77.457 212.425 -79.027 216.746 -81.977 219.948 C -83.674 221.898 -85.871 223.306 -88.025 224.696 C -88.453 224.642 -89.301 224.534 -89.722 224.486 C -91.083 226.43 -92.822 228.217 -93.375 230.594 C -96.313 232.346 -97.281 235.909 -97.215 239.134 C -97.149 243.167 -96.938 247.229 -96.271 251.207 C -95.969 249.583 -95.668 247.951 -95.488 246.302 C -94.02 248.722 -92.274 251.147 -89.662 252.417 C -88.802 253.079 -87.778 252.898 -86.815 252.64 " fill="#010101"/>
<path transform="matrix(1,0,0,-1,392.6309,236.94782)" d="M 0 0 C 3.328 2.131 6.681 4.285 10.37 5.76 C 9.01 3.569 7.415 1.535 6.15 -.71 C 2.816 -.283 -.674 -1.601 -2.9 -4.099 C -4.068 -5.025 -5.14 -6.084 -5.922 -7.36 C -11.309 -15.876 -13.626 -26.246 -12.488 -36.249 C -11.748 -39.523 -9.419 -42.851 -5.952 -43.555 C -4.086 -44.024 -2.227 -43.296 -.463 -42.718 C -.229 -45.974 .457 -49.17 1.071 -52.366 C -2.426 -49.958 -5.897 -47.245 -10.093 -46.209 C -5.242 -60.87 7.992 -72.269 23.11 -75.266 C 22.966 -73.628 22.069 -72.25 20.986 -71.077 C 21.118 -70.987 21.371 -70.818 21.498 -70.728 C 24.646 -71.781 27.991 -72.01 31.271 -72.389 C 29.707 -73.352 28.238 -74.471 27.034 -75.868 C 42.394 -77.86 58.823 -71.065 67.863 -58.415 C 63.801 -58.396 59.991 -59.961 56.182 -61.153 C 56.977 -59.84 57.771 -58.529 58.553 -57.21 C 59.449 -55.754 60.244 -54.238 60.973 -52.697 C 61.55 -53.154 62.134 -53.606 62.718 -54.063 C 66.021 -55.814 70.548 -54.731 72.438 -51.451 C 76.35 -43.585 78.083 -34.521 76.837 -25.789 C 76.59 -22.864 75.897 -19.987 75.001 -17.201 C 73.936 -13.83 70.854 -11.363 67.43 -10.712 C 66.906 -8.263 66.052 -5.904 65.281 -3.527 C 68.134 -6.126 70.476 -9.214 72.919 -12.193 C 68.104 -1.354 58.547 7.198 47.4 11.158 C 31.241 17.074 11.676 12.789 0 0 M 27.769 15.425 C 36.255 16.189 44.939 14.739 52.601 10.984 C 62.862 6.097 71.149 -2.72 75.452 -13.229 C 79.238 -22.334 80.026 -32.637 77.667 -42.207 C 75.452 -51.294 70.463 -59.703 63.464 -65.919 C 55.965 -72.66 46.228 -76.878 36.171 -77.679 C 26.475 -78.509 16.545 -76.21 8.209 -71.198 C .162 -66.407 -6.361 -59.106 -10.226 -50.573 C -15.166 -39.944 -15.822 -27.419 -12.073 -16.316 C -6.608 .921 9.768 13.891 27.769 15.425 " fill="#010101"/>
<path transform="matrix(1,0,0,-1,405.0527,230.207)" d="M 0 0 C 6.085 2.798 12.41 5.158 18.964 6.578 C 21.215 7.27 23.363 5.982 25.217 4.839 C 17.941 5.332 9.864 3.569 5.067 -2.335 C 3.4 -1.504 1.68 -.8 0 0 " fill="#010101"/>
<path transform="matrix(1,0,0,-1,286.6953,325.0986)" d="M 0 0 L .217 -.169 C -3.027 -2.696 -3.214 -8.064 -.114 -10.779 C 2.612 -13.499 7.535 -13.325 10.063 -10.406 C 11.862 -8.751 11.248 -6.139 11.212 -3.979 C 11.02 -5.134 10.833 -6.289 10.652 -7.451 L 9.834 -6.47 C 7.758 -6.542 7.505 -9.082 9.347 -9.78 C 7.084 -11.194 3.828 -11.472 1.872 -9.383 C -.355 -7.259 .006 -3.672 1.914 -1.469 C 3.232 -.933 4.538 -.127 6.013 -.192 C 7.301 -.409 8.474 -1.023 9.672 -1.517 C 8.468 -.289 7.252 1.144 5.471 1.456 C 3.509 1.914 1.68 .854 0 0 M -9.834 .457 C -11.94 -1.324 -12.825 -4.352 -11.929 -6.976 C -11.465 -8.618 -9.636 -9.154 -8.426 -10.135 C -6.271 -11.544 -4.761 -13.668 -2.847 -15.341 C .133 -17.008 4.032 -17.719 7.126 -15.925 C 9.364 -14.757 10.785 -12.53 11.657 -10.231 C 9.443 -12.513 6.283 -14.33 3.009 -13.385 C -1.709 -12.5 -4.538 -6.855 -2.527 -2.516 C -1.486 .481 1.559 2.021 4.514 2.497 C -.181 4.285 -5.958 3.84 -9.834 .457 M -11.507 1.534 C -8.034 6.048 -1.595 6.993 3.635 5.555 C 7.722 4.562 11.441 1.715 12.837 -2.342 C 12.928 -4.911 12.536 -7.469 12.224 -10.015 C 11.82 -13.542 8.859 -16.406 5.525 -17.321 C 2.938 -18.037 .253 -17.321 -2.238 -16.593 C -1.848 -17.219 -1.065 -18.471 -.674 -19.097 C -5.435 -13.915 -10.989 -9.533 -16.99 -5.88 C -15.503 -6.422 -14.059 -7.042 -12.597 -7.655 C -12.777 -7.252 -13.145 -6.446 -13.324 -6.049 C -13.56 -3.406 -13.259 -.572 -11.507 1.534 " fill="#010101"/>
<path transform="matrix(1,0,0,-1,45.2681,265.3486)" d="M 0 0 C .789 -.445 1.709 -.56 2.576 -.8 C 2.54 1.45 2.829 3.756 2.317 5.971 C 1.661 6.614 .656 6.717 -.145 7.102 C -.349 4.743 -.439 2.335 0 0 M -7.523 41.991 C -10.821 40.504 -12.055 36.64 -12.874 33.39 C -14.204 27.787 -13.56 21.708 -11.074 16.515 C -9.918 14.264 -8.053 11.826 -5.314 11.676 C -3.25 11.862 -2.263 14.041 -1.914 15.829 C -1.156 20.144 -1.468 24.543 -1.517 28.9 C -1.733 32.59 -1.48 36.55 -3.388 39.878 C -4.219 41.232 -5.808 42.683 -7.523 41.991 M -8.781 51.752 C -8.45 50.477 -7.836 49.297 -7.318 48.087 C -6.175 49.237 -5.001 50.404 -4.267 51.867 C -4.423 53.191 -5.206 54.328 -5.771 55.496 C -6.843 54.334 -8.293 53.329 -8.781 51.752 M -9.653 58.957 C -8.348 63.277 -7.005 67.617 -5.067 71.709 C -2.498 53.684 -.56 35.502 3.954 17.827 C 8.39 1.745 15.124 -13.716 23.995 -27.847 C 26.957 -32.571 30.935 -36.514 34.702 -40.575 C 36.941 -43.17 39.607 -45.324 42.267 -47.473 C 23.857 -38.415 7.06 -25.234 -4.369 -8.04 C -11.465 2.414 -14.944 15.13 -14.739 27.721 C -14.667 38.319 -12.657 48.821 -9.653 58.957 " fill="#dad9d5"/>
<path transform="matrix(1,0,0,-1,150.957,223.37009)" d="M 0 0 C 3.147 6.151 5.591 12.645 8.672 18.825 C 11.14 15.563 11.808 11.375 12.085 7.396 C 12.344 .945 11.447 -5.489 10.321 -11.82 C 9.99 -13.132 9.918 -14.588 9.136 -15.738 C 8.263 -16.051 7.348 -16.25 6.421 -16.328 C .187 -16.743 -6.223 -16.562 -12.164 -14.426 C -6.229 -11.634 -2.895 -5.573 0 0 " fill="#dad9d5"/>
<path transform="matrix(1,0,0,-1,169.4873,217.71289)" d="M 0 0 C 4.604 -9.515 8.456 -19.379 13.048 -28.9 C 14.282 -31.572 15.907 -34.076 16.839 -36.887 C 15.786 -36.026 14.877 -34.997 14.162 -33.842 C 7.336 -23.628 1.896 -12.205 0 0 " fill="#dad9d5"/>
<path transform="matrix(1,0,0,-1,147.1353,221.17969)" d="M 0 0 C 1.047 .301 2.106 .578 3.184 .752 C 1.396 -3.238 -.909 -7.023 -3.713 -10.381 C -5.729 -12.584 -8.239 -14.938 -11.423 -14.877 C -14.384 -14.564 -15.997 -11.724 -17.447 -9.467 C -13.518 -9.708 -9.582 -8.696 -6.337 -6.439 C -5.868 -6.168 -5.38 -5.928 -4.881 -5.717 C -3.96 -6.494 -3.118 -7.373 -2.143 -8.095 C -.771 -6.807 -2.215 -5.489 -3.045 -4.436 C -2.714 -4.333 -2.059 -4.134 -1.728 -4.032 C -1.926 -3.803 -2.323 -3.334 -2.522 -3.105 C -1.306 -2.979 -.434 -2.082 .458 -1.342 C .379 -1.113 .229 -.662 .15 -.439 Z " fill="#dad9d5"/>
<path transform="matrix(1,0,0,-1,165.6597,235.84619)" d="M 0 0 C .578 3.942 .554 7.95 1.204 11.88 C 2.708 8.263 3.671 4.454 5.188 .836 C 7.649 -5.7 11.146 -11.778 14.914 -17.634 C 18.182 -22.671 23.598 -25.663 28.732 -28.467 C 37.224 -33.029 46.534 -36.008 56.062 -37.453 C 57.632 -37.723 59.233 -37.627 60.816 -37.458 L 60.858 -37.453 C 63.301 -41.828 66.106 -46.01 69.41 -49.791 C 67.322 -49.748 65.215 -49.477 63.139 -49.778 C 62.062 -49.922 61.002 -50.139 59.931 -50.301 C 52.968 -48.183 45.505 -48.533 38.518 -50.344 C 34.449 -49.285 30.218 -50.079 26.078 -50.145 C 4.044 -51.416 -16.737 -59.708 -38.433 -63.018 C -42.279 -63.5 -46.299 -64.042 -50.037 -62.669 C -48.598 -62.363 -47.142 -62.134 -45.673 -61.977 C -41.797 -61.646 -38.042 -60.352 -34.63 -58.523 C -27.757 -54.605 -22.238 -48.773 -17.393 -42.598 C -13.644 -38.193 -10.478 -33.335 -7.776 -28.226 C -3.395 -19.427 -1.113 -9.732 0 0 " fill="#dad9d5"/>
<path transform="matrix(1,0,0,-1,386.709,244.3081)" d="M 0 0 C .782 1.276 1.854 2.335 3.021 3.262 C 1.511 -.71 -.175 -4.67 -.807 -8.901 C -2.125 -17.905 .481 -27.185 5.513 -34.678 C 7.613 -37.904 10.363 -40.606 12.945 -43.435 C 11.459 -44.379 9.942 -45.264 8.426 -46.155 C 14.679 -51.054 20.486 -56.489 25.963 -62.236 C 28.19 -61.659 30.02 -60.034 31.993 -58.884 C 25.097 -57.042 18.332 -52.661 15.768 -45.721 C 18.572 -47.232 21.245 -48.996 24.151 -50.326 C 32.391 -54.297 41.743 -55.315 50.771 -54.382 C 46.04 -58.246 39.733 -59.75 33.721 -58.957 C 35.226 -60.755 36.706 -62.585 38.253 -64.355 C 45.559 -60.816 53.034 -57.638 60.533 -54.514 C 59.883 -53.714 59.257 -52.925 58.631 -52.125 C 60.568 -51.349 62.513 -50.579 64.475 -49.85 C 63.692 -51.168 62.898 -52.48 62.104 -53.792 C 65.913 -52.601 69.723 -51.036 73.785 -51.054 C 64.745 -63.705 48.315 -70.5 32.956 -68.507 C 34.16 -67.111 35.629 -65.992 37.193 -65.029 C 33.913 -64.65 30.567 -64.42 27.42 -63.368 C 27.293 -63.458 27.04 -63.626 26.908 -63.716 C 27.991 -64.89 28.888 -66.268 29.032 -67.906 C 13.914 -64.909 .68 -53.509 -4.171 -38.849 C .024 -39.884 3.496 -42.598 6.993 -45.005 C 6.379 -41.81 5.693 -38.614 5.459 -35.358 C 3.695 -35.936 1.836 -36.664 -.03 -36.195 C -3.497 -35.491 -5.826 -32.163 -6.566 -28.888 C -7.704 -18.885 -5.387 -8.516 0 0 " fill="#dad9d5"/>
<path transform="matrix(1,0,0,-1,142.1641,269.98243)" d="M 0 0 C 2.907 2.251 5.338 5.031 8.281 7.24 C 6.969 3.581 4.183 .71 2.702 -2.858 C 1.475 -4.394 -.211 -5.477 -1.589 -6.873 C -7.415 -12.621 -14.781 -16.882 -22.81 -18.621 C -33.005 -20.697 -43.748 -19.464 -53.395 -15.654 C -54.484 -15.19 -55.52 -14.612 -56.543 -14.035 C -53.299 -14.583 -50.151 -15.696 -46.841 -15.841 C -41.828 -16.063 -36.742 -16.081 -31.795 -15.088 C -20.162 -12.801 -9.25 -7.366 0 0 " fill="#dad9d5"/>
<path transform="matrix(1,0,0,-1,469.4678,262.7363)" d="M 0 0 C 1.246 -8.732 -.487 -17.797 -4.399 -25.662 C -6.289 -28.942 -10.815 -30.025 -14.119 -28.274 C -5.05 -21.967 -.024 -10.911 0 0 " fill="#dad9d5"/>
<path transform="matrix(1,0,0,-1,71.3638,278.51069)" d="M 0 0 C 2.955 -3.954 6.121 -7.83 10.105 -10.809 C 16.141 -15.136 23.291 -17.531 30.381 -19.506 C 36.387 -21.16 42.436 -22.876 48.665 -23.424 C 51.878 -23.761 55.123 -23.803 58.306 -24.362 C 51.433 -25.241 44.464 -24.507 37.615 -23.742 C 29.129 -22.575 20.378 -21.377 12.765 -17.177 C 6.428 -13.565 .746 -7.553 0 0 " fill="#dad9d5"/>
<path transform="matrix(1,0,0,-1,258.5898,278.6787)" d="M 0 0 C 1.125 -.097 2.269 -.169 3.358 -.512 C 13.324 -4.123 23.345 -7.824 33.793 -9.822 C 43.157 -11.472 52.721 -11.502 62.193 -10.978 C 65.967 -14.168 69.458 -17.778 72.094 -21.985 C 67.418 -21.896 62.741 -21.191 58.222 -19.97 C 43.741 -16.437 29.099 -13.421 14.932 -8.721 C 9.551 -6.681 4.062 -4.177 0 0 " fill="#dad9d5"/>
<path transform="matrix(1,0,0,-1,182.9746,290.8779)" d="M 0 0 C 5.296 1.323 10.598 3.087 16.105 3.123 C 13.018 1.859 10.002 .343 6.807 -.608 C 3.96 -.59 1.228 -1.475 -1.511 -2.149 C -7.042 -3.551 -12.536 -5.11 -18.037 -6.639 C -20.812 -7.434 -23.574 -8.324 -26.451 -8.661 C -25.337 -8.083 -24.2 -7.548 -23.021 -7.126 C -15.407 -4.562 -7.788 -1.998 0 0 " fill="#dad9d5"/>
<path transform="matrix(1,0,0,-1,197.9365,290.8721)" d="M 0 0 C 8.461 3.496 18.35 4.7 26.98 1.102 C 34.96 -2.185 40.708 -9.154 44.927 -16.454 C 51.602 -28.004 55.32 -40.907 60.791 -53.017 C 63.645 -59.618 66.9 -66.034 70.006 -72.521 C 62.501 -63.482 54.376 -54.937 45.667 -47.052 C 37.374 -39.517 27.667 -33.499 17.038 -29.876 C -4.929 -22.263 -28.738 -22.96 -51.505 -25.831 C -33.366 -19.205 -17.983 -6.951 0 0 " fill="#dad9d5"/>
<path transform="matrix(1,0,0,-1,242.4844,287.5137)" d="M 0 0 C 1.703 .036 2.714 -1.499 4.05 -2.3 C 12.765 -8.155 22.888 -11.303 32.788 -14.511 C 45.613 -18.718 58.764 -21.835 71.932 -24.742 C 79.25 -26.259 86.73 -27.848 94.242 -26.933 C 94.218 -27.715 94.193 -28.504 94.17 -29.292 C 92.1 -29.899 90.131 -30.862 88.211 -31.802 L 90.793 -29.328 C 89.325 -29.641 87.982 -30.321 86.707 -31.079 C 81.29 -30.682 75.838 -30.664 70.499 -29.509 C 70.042 -27.956 68.868 -26.818 67.743 -25.735 C 68.79 -27.914 69.844 -30.146 69.964 -32.614 C 68.537 -32.229 68.495 -30.483 67.833 -29.395 C 66.341 -26.409 64.343 -22.72 60.581 -22.485 C 54.424 -21.703 48.249 -22.954 42.087 -22.912 C 32.198 -19.072 21.913 -16.033 12.777 -10.509 C 8.089 -7.704 2.45 -5.194 0 0 " fill="#dad9d5"/>
<path transform="matrix(1,0,0,-1,237.3208,293.502)" d="M 0 0 C 2.666 .836 5.187 -.675 7.607 -1.577 C 10.628 -2.919 13.776 -4.051 16.586 -5.826 C 19.704 -7.843 21.576 -11.255 22.695 -14.709 C 23.802 -18.26 25.048 -21.817 25.343 -25.555 C 22.334 -21.54 20.571 -16.737 17.471 -12.777 C 15.208 -9.913 12.789 -7.012 9.539 -5.225 C 12.103 -8.589 15.413 -11.411 17.237 -15.305 C 21.924 -24.796 22.55 -35.563 24.879 -45.734 C 25.41 -47.822 25.668 -49.971 25.674 -52.132 C 20.715 -41.178 17.02 -29.695 12.205 -18.676 C 9.154 -11.869 5.29 -5.327 0 0 " fill="#dad9d5"/>
<path transform="matrix(1,0,0,-1,80.2588,299.6709)" d="M 0 0 C 3.431 -2.715 7.379 -4.743 11.652 -5.729 C 28.678 -9.87 46.552 -10.677 63.831 -7.668 C 67.978 -7.096 71.968 -5.742 76.126 -5.236 C 74.267 -7.204 71.872 -8.498 69.566 -9.853 C 60.72 -14.944 50.53 -17.574 40.354 -17.772 C 34.143 -17.664 27.968 -16.906 21.835 -16.009 C 21.865 -16.454 21.931 -17.333 21.967 -17.772 C 14.456 -15.017 7.722 -10.437 1.95 -4.936 L 1.944 -4.839 C 1.926 -4.557 1.896 -3.99 1.884 -3.708 C 1.342 -2.426 .662 -1.216 0 0 " fill="#dad9d5"/>
<path transform="matrix(1,0,0,-1,271.4873,318.1777)" d="M 0 0 C .776 3.473 3.201 6.5 6.331 8.148 C 7.161 8.119 7.98 7.962 8.811 7.848 C 7.872 7.806 6.957 7.722 6.03 7.638 C 15.708 2.666 27.082 3.659 37.037 -.439 C 37.446 -2.822 37.861 -5.284 37.325 -7.686 C 36.236 -12.633 33.059 -16.899 29.152 -20.035 C 30.224 -16.538 30.958 -12.097 28.045 -9.263 C 26.649 -5.206 22.93 -2.359 18.843 -1.366 C 13.613 .072 7.174 -.873 3.701 -5.387 C 1.949 -7.493 1.648 -10.327 1.884 -12.97 C -.999 -9.322 -1.018 -4.333 0 0 " fill="#dad9d5"/>
<path transform="matrix(1,0,0,-1,323.1309,327.2236)" d="M 0 0 C 1.95 1.631 4.285 3.377 6.993 2.943 C 8.54 2.745 9.611 1.505 10.646 .464 C 7.944 -5.555 5.657 -11.832 4.658 -18.38 C 3.936 -22.894 3.581 -27.456 2.997 -31.993 C 2.774 -33.727 2.323 -35.593 .891 -36.736 C -2.167 -39.312 -5.832 -41.027 -9.449 -42.652 C -17.797 -46.106 -27.005 -47.695 -36.021 -46.877 C -25.705 -45.06 -15.088 -42.748 -6.199 -36.923 C -.662 -33.601 1.559 -26.908 2.238 -20.823 C .68 -22.484 -.565 -24.393 -1.842 -26.264 C -2.148 -26.246 -2.757 -26.204 -3.058 -26.186 C -1.752 -24.386 -.662 -22.412 -.072 -20.258 C 1.191 -15.563 4.032 -11.104 3.509 -6.078 C 3.328 -4.868 1.937 -4.761 .999 -5.067 C -2.07 -6.006 -4.436 -8.426 -6.145 -11.056 C -6.35 -10.694 -6.747 -9.984 -6.945 -9.623 C -5.194 -6.331 -3.527 -2.841 -.681 -.331 C -.512 -.246 -.169 -.084 0 0 " fill="#dad9d5"/>
<path transform="matrix(1,0,0,-1,329.4316,344.0869)" d="M 0 0 C 1.054 6.036 3.214 11.784 5.621 17.387 C 6.091 16.635 6.566 15.877 7.042 15.118 C 7.933 8.022 12.32 1.715 17.784 -2.721 C 26.583 -9.497 37.007 -13.782 47.6 -16.875 C 60.497 -20.354 73.996 -21.504 87.297 -20.348 C 91.407 -19.957 95.422 -18.946 99.49 -18.271 C 91.679 -26.252 82.873 -33.378 73.052 -38.746 C 66.01 -42.405 57.945 -45.619 49.898 -43.802 C 45.95 -43.092 42.857 -40.167 40.763 -36.898 C 36.893 -31.127 35.353 -24.193 31.795 -18.254 C 30.7 -16.448 29.731 -14.312 27.697 -13.385 C 24.67 -11.898 21.251 -12.909 18.158 -13.613 C 9.889 -15.365 2.462 -19.571 -5.429 -22.431 C -1.432 -19.464 -1.667 -14.137 -1.264 -9.689 C -.204 -11.23 1.054 -12.892 3.063 -13.126 C 9.124 -14.077 15.203 -12.47 21.233 -11.929 C 13.86 -8.54 6.085 -5.561 0 0 " fill="#dad9d5"/>
<path transform="matrix(1,0,0,-1,366.6914,348.31739)" d="M 0 0 C 3.744 -.759 7.318 -2.209 11.104 -2.817 C 17.869 -4.026 24.729 -4.953 31.621 -4.852 C 32.896 -6.338 34.558 -7.487 36.447 -8.053 C 43.261 -9.997 50.777 -8.806 56.826 -5.164 C 61.159 -6.224 65.648 -5.441 70.061 -5.657 C 69.176 -6.705 68.285 -7.734 67.395 -8.77 L 67.273 -8.781 C 64.493 -8.985 61.821 -9.847 59.064 -10.214 C 54.671 -10.833 50.224 -10.99 45.794 -10.804 C 32.776 -10.117 19.783 -8.065 7.349 -4.104 C 4.671 -3.196 2.167 -1.812 0 0 " fill="#dad9d5"/>
<path transform="matrix(1,0,0,-1,332.5137,365.4521)" d="M 0 0 C 6.397 2.582 12.771 6.344 19.896 6.043 C 23.778 5.946 26.391 2.6 27.949 -.602 C 30.591 -6.078 32.703 -11.832 35.983 -16.983 C 31.03 -10.887 23.971 -6.56 16.207 -5.212 C 3.509 -2.744 -9.19 -6.331 -21.727 -8.011 C -14.36 -5.705 -7.132 -2.943 0 0 " fill="#dad9d5"/>
<path transform="matrix(1,0,0,-1,101.2813,198.4541)" d="M 0 0 C 1.029 .187 2.064 .319 3.105 .451 L 3.202 -.072 C 3.455 -.903 3.822 -.927 4.297 -.15 L 4.845 .024 C 5.109 -.217 5.633 -.692 5.898 -.933 C 4.676 -1.059 3.466 -1.258 2.257 -1.432 C 2.118 -1.065 1.854 -.337 1.715 .03 C 1.288 .024 .427 .012 0 0 " fill="#623541"/>
<path transform="matrix(1,0,0,-1,92.2656,201.20459)" d="M 0 0 C 2.949 1.078 5.874 2.359 9.016 2.75 C 9.443 2.763 10.303 2.774 10.731 2.781 C 10.869 2.414 11.134 1.685 11.272 1.318 C 12.482 1.493 13.692 1.691 14.914 1.818 C 15.473 1.685 15.997 1.426 16.539 1.204 C 14.619 1.348 12.687 1.258 10.791 .957 C 12.789 -.403 15.214 .355 17.447 .361 C 17.622 .289 17.971 .139 18.146 .066 C 17.435 -.578 15.792 -.668 15.889 -1.859 C 16.647 -2.275 17.453 -2.588 18.254 -2.937 C 18.356 -2.449 18.573 -1.475 18.675 -.981 C 19.277 -1.546 19.879 -2.112 20.48 -2.678 C 22.238 -4.207 23.586 -6.139 24.724 -8.155 C 20.932 -5.375 16.755 -3.027 12.163 -1.89 C 13.343 -1.45 14.504 -.945 15.558 -.247 C 14.39 -.289 13.222 -.361 12.067 -.511 C 11.989 -.812 11.832 -1.408 11.76 -1.709 C 7.926 -.65 3.954 -.295 0 0 " fill="#dcd9d5"/>
<path transform="matrix(1,0,0,-1,37.083,235.6958)" d="M 0 0 C .114 .915 .843 1.589 1.27 2.359 C 3.16 -.174 3.196 -3.467 2.498 -6.428 C -.361 -5.633 -.156 -2.365 0 0 " fill="#dcd9d5"/>
<path transform="matrix(1,0,0,-1,104.4829,198.5264)" d="M 0 0 C .277 -.018 .825 -.06 1.095 -.078 C .62 -.854 .253 -.831 0 0 " fill="#c9a9af"/>
<path transform="matrix(1,0,0,-1,103.0566,200.24759)" d="M 0 0 C 1.896 .301 3.828 .391 5.748 .247 C 5.97 .036 6.428 -.385 6.656 -.596 C 4.423 -.602 1.998 -1.36 0 0 " fill="#803248"/>
<path transform="matrix(1,0,0,-1,104.3325,201.71579)" d="M 0 0 C 1.155 .15 2.323 .223 3.491 .265 C 2.438 -.434 1.276 -.939 .096 -1.378 C -.03 -1.42 -.277 -1.511 -.397 -1.559 L -.307 -1.198 C -.235 -.897 -.078 -.301 0 0 " fill="#8a1538"/>
<path transform="matrix(1,0,0,-1,125.5112,211.9414)" d="M 0 0 C 1.661 -.704 2.985 -1.974 3.737 -3.611 C 3.075 -3.142 2.431 -2.648 1.823 -2.112 C 1.173 -1.444 .583 -.722 0 0 " fill="#8a1538"/>
<path transform="matrix(1,0,0,-1,45.2681,265.3486)" d="M 0 0 C -.439 2.335 -.349 4.743 -.145 7.102 C .656 6.717 1.661 6.614 2.317 5.971 C 2.829 3.756 2.54 1.45 2.576 -.8 C 1.709 -.56 .789 -.445 0 0 " fill="#8a1538"/>
<path transform="matrix(1,0,0,-1,433.8145,346.4336)" d="M 0 0 C 1.096 1.179 1.998 2.594 3.353 3.515 C 4.635 3.46 5.856 3.026 7.048 2.569 C 6.097 1.3 5.248 -.085 4.032 -1.12 C 2.624 -.999 1.288 -.53 0 0 " fill="#8a1538"/>
<path transform="matrix(1,0,0,-1,108.1543,203.064)" d="M 0 0 C -.097 1.191 1.546 1.282 2.257 1.926 C 3.057 1.029 3.852 .132 4.592 -.819 C 3.99 -.253 3.388 .313 2.786 .878 C 2.684 .385 2.467 -.59 2.365 -1.078 C 1.564 -.729 .758 -.416 0 0 " fill="#8e343c"/>
<path transform="matrix(1,0,0,-1,275.2969,346.80079)" d="M 0 0 C .722 .156 1.517 -.403 1.673 -1.12 C 1.348 -2.264 -1.343 -.675 0 0 " fill="#8e343c"/>
<path transform="matrix(1,0,0,-1,284.4805,359.6807)" d="M 0 0 C 2.895 -2.756 6.59 -4.742 10.701 -4.55 C 8.829 -5.14 7.012 -5.904 5.116 -6.403 C 4.225 -5.855 3.497 -5.104 2.618 -4.556 C 1.306 -4.062 -.139 -4.297 -1.505 -4.272 C -.933 -2.87 -.434 -1.444 0 0 " fill="#8e343c"/>
<path transform="matrix(1,0,0,-1,71.3638,278.51069)" d="M 0 0 C .746 -7.553 6.428 -13.565 12.765 -17.177 C 20.378 -21.377 29.129 -22.575 37.615 -23.742 C 44.464 -24.507 51.433 -25.241 58.306 -24.362 C 55.123 -23.803 51.878 -23.761 48.665 -23.424 C 42.436 -22.876 36.387 -21.16 30.381 -19.506 C 23.291 -17.531 16.141 -15.136 10.105 -10.809 C 6.121 -7.83 2.955 -3.954 0 0 M 98.124 60.798 C 100.02 48.593 105.46 37.17 112.285 26.956 C 113.001 25.801 113.91 24.771 114.963 23.911 C 114.03 26.722 112.405 29.226 111.171 31.897 C 106.58 41.418 102.728 51.283 98.124 60.798 M 89.975 75.916 C 98.533 73.003 105.779 67.364 112.508 61.49 C 122.691 52.408 132.735 43.176 143.063 34.263 C 143.46 26.379 145.266 17.803 151.254 12.188 C 152.061 11.525 151.254 10.195 152.084 9.527 C 153.252 8.203 154.323 6.795 155.112 5.206 C 153.529 5.037 151.928 4.941 150.357 5.212 C 140.83 6.656 131.52 9.636 123.028 14.197 C 117.894 17.002 112.478 19.993 109.209 25.03 C 105.442 30.887 101.945 36.965 99.484 43.501 C 97.967 47.118 97.004 50.928 95.5 54.545 C 94.85 50.615 94.874 46.606 94.296 42.665 C 93.183 32.933 90.901 23.237 86.52 14.438 C 83.818 9.329 80.652 4.472 76.903 .066 C 72.058 -6.108 66.539 -11.94 59.666 -15.858 C 56.254 -17.687 52.499 -18.981 48.623 -19.312 C 47.154 -19.47 45.698 -19.698 44.259 -20.005 C 47.997 -21.377 52.017 -20.836 55.863 -20.354 C 77.559 -17.044 98.34 -8.751 120.374 -7.48 C 124.514 -7.414 128.745 -6.62 132.813 -7.68 C 131.116 -8.203 129.461 -8.895 127.716 -9.244 C 122.209 -9.28 116.907 -11.044 111.611 -12.367 C 103.823 -14.365 96.204 -16.93 88.59 -19.493 C 87.411 -19.915 86.273 -20.45 85.16 -21.028 C 88.037 -20.691 90.799 -19.801 93.574 -19.006 C 99.075 -17.478 104.569 -15.918 110.1 -14.517 C 112.838 -13.842 115.571 -12.957 118.417 -12.976 L 118.436 -12.976 C 117.202 -13.92 115.746 -14.492 114.367 -15.185 C 99.827 -22.49 86.25 -31.837 70.8 -37.235 C 63.265 -39.685 55.496 -41.954 47.497 -41.888 C 41.828 -41.924 36.188 -40.841 30.862 -38.933 C 30.826 -38.493 30.76 -37.614 30.73 -37.169 C 36.863 -38.066 43.038 -38.824 49.249 -38.933 C 59.425 -38.734 69.615 -36.104 78.461 -31.013 C 80.767 -29.658 83.162 -28.364 85.021 -26.396 C 80.863 -26.902 76.873 -28.256 72.726 -28.828 C 55.447 -31.837 37.573 -31.03 20.547 -26.89 C 16.274 -25.903 12.326 -23.875 8.895 -21.16 C 9.557 -22.376 10.237 -23.586 10.779 -24.868 C 10.791 -25.15 10.821 -25.717 10.839 -25.999 C .716 -16.4 -6.548 -4.141 -11.844 8.673 C -15.81 18.146 -19.121 27.914 -21.263 37.964 C -21.901 40.967 -22.731 43.922 -23.441 46.914 C -22.087 45.156 -20.793 43.351 -19.542 41.527 C -20.252 38.765 -19.181 36.05 -18.374 33.444 C -17.014 29.46 -15.918 25.367 -13.975 21.612 C -10.147 13.048 -2.516 6.603 6.079 3.118 C 12.735 .602 19.867 -.493 26.962 -.62 C 36.243 -.554 45.415 1.33 54.268 3.99 C 59.125 5.417 63.668 7.697 68.14 10.021 C 68.953 10.328 69.326 11.08 69.5 11.874 L 69.542 11.995 C 74.092 14.324 78.161 17.483 81.766 21.089 C 80.875 19.313 80.123 17.46 79.082 15.769 C 76.139 13.56 73.707 10.779 70.8 8.528 C 61.55 1.162 50.639 -4.272 39.005 -6.56 C 34.058 -7.553 28.973 -7.535 23.959 -7.312 C 20.649 -7.168 17.501 -6.055 14.257 -5.507 C 15.281 -6.084 16.316 -6.662 17.405 -7.126 C 27.053 -10.936 37.795 -12.169 47.991 -10.093 C 56.019 -8.354 63.386 -4.093 69.211 1.655 C 70.589 3.052 72.275 4.135 73.502 5.67 C 80.249 14.306 86.231 23.713 89.758 34.148 C 92.358 41.726 93.17 49.76 93.724 57.705 C 94.158 63.976 92.882 70.337 89.975 75.916 " fill="#efeee9"/>
<path transform="matrix(1,0,0,-1,116.3213,203.91892)" d="M 0 0 C 1.288 -.873 2.54 -1.793 3.803 -2.696 C 3.412 -2.865 2.636 -3.214 2.25 -3.388 L 2.167 -3.424 C 1.486 -2.257 .728 -1.137 0 0 " fill="#efeee9"/>
<path transform="matrix(1,0,0,-1,119.8057,209.43161)" d="M 0 0 C .734 -.223 1.469 -.463 2.197 -.71 C 2.811 -.494 3.424 -.283 4.039 -.066 L 4.231 0 C 4.387 -.181 4.7 -.536 4.857 -.716 C 2.432 -.692 2.323 -3.16 2.287 -4.983 C 1.565 -3.304 .734 -1.673 0 0 " fill="#efeee9"/>
<path transform="matrix(1,0,0,-1,133.1484,224.6221)" d="M 0 0 C -.831 .145 -1.077 .794 -1.029 1.553 C -.596 1.637 .277 1.812 .71 1.902 C .121 2.227 -.602 3.701 -1.444 2.931 C -2.774 2.022 -1.751 .241 -1.529 -.975 C -.523 -1.45 .548 -1.95 1.288 -.638 C 1.788 -1.228 2.251 -1.842 2.745 -2.449 C 3.539 -1.468 4.189 -.379 4.899 .668 L 5.29 -.867 C 5.609 -.638 6.253 -.174 6.578 .054 C 5.844 .945 4.989 1.715 4.165 2.51 C 5.375 2.125 6.681 .873 7.95 1.366 C 8.046 1.884 8.233 2.931 8.33 3.449 C 9.118 2.287 10.027 1.113 11.567 1.83 C 11.056 2.57 10.55 3.316 10.045 4.062 C 8.685 4.153 7.409 4.628 6.223 5.272 C 5.025 5.122 3.822 4.953 2.756 4.363 C 3.473 3.353 2.696 1.643 4.237 1.198 C 3.822 .915 2.991 .355 2.576 .072 C 2.365 1.956 2.004 3.84 2.179 5.742 C -.825 4.761 2.708 1.107 0 0 M -8.757 10.574 C -9.413 11.856 -8.167 12.837 -7.505 13.776 C -5.724 12.554 -3.81 11.477 -2.275 9.942 C -1.667 9.202 -1.113 8.432 -.548 7.655 C -1.529 7.938 -2.498 8.239 -3.473 8.528 C -2.365 6.705 -.445 5.753 1.679 5.922 C 1.444 6.699 1.216 7.463 .981 8.239 C 2.203 6.969 3.978 6.674 5.507 5.946 C 7.505 5.02 9.66 4.472 11.814 4.057 L 11.784 3.424 L 12.53 3.731 L 12.344 2.973 C 12.795 2.979 13.692 2.997 14.137 3.003 C 14.215 2.781 14.366 2.329 14.444 2.101 C 13.553 1.36 12.681 .463 11.465 .337 C 10.039 .758 8.69 .175 7.409 -.391 C 7.487 -1.258 7.565 -2.125 7.649 -2.997 C 4.405 -5.254 .469 -6.265 -3.46 -6.024 C -5.988 -.831 -8.426 4.406 -10.719 9.702 C -9.298 8.179 -8.293 6.169 -6.169 5.513 C -5.417 7.132 -4.761 8.913 -5.814 10.568 C -5.206 10.033 -4.562 9.539 -3.9 9.07 C -4.652 10.707 -5.976 11.977 -7.637 12.681 C -7.054 11.958 -6.464 11.236 -5.814 10.568 C -6.596 10.93 -7.385 11.278 -8.173 11.616 C -7.854 10.448 -7.036 9.593 -6.151 8.817 C -7.391 7.499 -8.408 9.557 -8.757 10.574 " fill="#efeee9"/>
<path transform="matrix(1,0,0,-1,258.3066,278.6553)" d="M 0 0 C -.343 2.335 2.685 2.558 4.165 3.503 C 5.519 2.606 6.921 1.697 8.528 1.312 C 16.61 -.655 24.94 -1.378 33.233 -1.619 C 37.302 -1.36 41.491 -1.432 45.402 -.138 C 51.518 -3.009 57.247 -6.723 62.477 -11.001 C 53.004 -11.525 43.44 -11.495 34.076 -9.846 C 23.628 -7.848 13.607 -4.146 3.642 -.535 C 2.552 -.192 1.408 -.12 .283 -.023 Z " fill="#efeee9"/>
<path transform="matrix(1,0,0,-1,264.4453,341.9385)" d="M 0 0 C 3.226 -1.547 6.572 -2.828 9.828 -4.315 C 5.615 -11.663 8.035 -22.189 15.257 -26.716 C 17.05 -27.991 19.415 -27.949 21.413 -27.185 C 22.9 -27.377 24.429 -27.401 25.897 -27.059 C 31.326 -25.885 36.706 -24.513 42.068 -23.099 C 43.037 -22.876 43.922 -22.412 44.729 -21.841 C 44.873 -21.822 45.162 -21.792 45.313 -21.774 C 43.073 -21.209 40.751 -21.112 38.506 -20.589 C 29.388 -18.597 21.095 -13.366 14.907 -6.439 C 17.466 -7.264 19.873 -8.485 22.4 -9.4 C 21.017 -8.203 19.5 -7.168 17.953 -6.192 C 17.038 -3.551 14.39 -2.094 12.037 -.921 C 9.876 .145 7.396 -.162 5.164 -.794 C 3.461 -.421 1.728 -.204 0 0 M -38.854 55.791 C -37.783 55.953 -36.724 56.17 -35.647 56.314 C -31.024 56.134 -26.583 54.575 -21.961 54.425 C -19.511 49.23 -13.872 46.721 -9.184 43.916 C -.048 38.392 10.237 35.353 20.126 31.513 C 18.693 31.513 17.272 31.524 15.853 31.608 C 15.022 31.723 14.203 31.88 13.373 31.909 C 10.243 30.261 7.818 27.233 7.042 23.761 C 6.024 19.428 6.043 14.438 8.926 10.791 C 9.105 10.394 9.473 9.588 9.653 9.185 C 8.191 9.798 6.747 10.418 5.26 10.96 C 11.261 7.307 16.815 2.925 21.576 -2.257 C 21.185 -1.631 20.402 -.379 20.012 .247 C 22.503 -.481 25.187 -1.197 27.775 -.481 C 31.109 .434 34.07 3.298 34.474 6.825 C 34.786 9.371 35.178 11.929 35.087 14.498 C 38 11.664 37.266 7.223 36.194 3.726 C 40.101 6.861 43.278 11.128 44.367 16.075 C 44.903 18.477 44.488 20.938 44.079 23.321 C 44.885 22.942 45.668 22.521 46.462 22.1 L 45.884 21.342 C 46.643 21.588 47.726 21.27 48.262 21.979 C 48.437 22.954 48.484 23.941 48.538 24.916 C 53.877 23.761 59.329 23.743 64.746 23.346 C 63.692 22.292 62.886 21.064 62.621 19.59 C 60.967 17.959 59.498 16.159 58.005 14.384 C 55.158 11.874 53.491 8.384 51.74 5.092 C 51.938 4.73 52.336 4.021 52.541 3.659 C 51.234 1.522 50.374 -.849 49.651 -3.237 L 49.495 -3.749 C 49.261 -6.036 48.376 -8.492 49.339 -10.719 C 49.586 -11.404 49.94 -12.097 49.868 -12.861 C 52.733 -12.247 55.67 -12.283 58.583 -12.043 C 57.999 -11.862 57.422 -11.699 56.844 -11.549 C 58.12 -9.678 59.365 -7.77 60.924 -6.108 C 60.244 -12.193 58.023 -18.886 52.486 -22.208 C 43.598 -28.033 32.98 -30.345 22.665 -32.162 C 19.422 -31.921 16.256 -31.055 13.175 -30.067 C 11.952 -29.742 11.381 -28.521 10.671 -27.606 C 5.705 -20.155 1.8 -12.013 -1.45 -3.695 C -1.456 -1.534 -1.715 .614 -2.245 2.702 C -4.574 12.873 -5.2 23.641 -9.888 33.132 C -11.712 37.025 -15.022 39.848 -17.585 43.212 C -14.335 41.425 -11.916 38.523 -9.653 35.659 C -6.554 31.699 -4.79 26.896 -1.781 22.882 C -2.076 26.619 -3.322 30.177 -4.43 33.728 C -5.549 37.182 -7.421 40.594 -10.538 42.61 C -13.349 44.386 -16.496 45.518 -19.518 46.859 C -21.937 47.762 -24.458 49.272 -27.125 48.437 C -30.507 51.644 -34.491 54.159 -38.854 55.791 " fill="#efeee9"/>
<path transform="matrix(1,0,0,-1,336.4736,328.9688)" d="M 0 0 C 5.17 -4.784 11.073 -8.774 17.453 -11.766 C 26.096 -16.437 35.749 -18.753 45.33 -20.613 C 50.59 -21.54 55.851 -22.575 61.188 -22.996 C 61.352 -23.297 61.676 -23.898 61.839 -24.2 C 54.947 -24.302 48.087 -23.375 41.322 -22.166 C 37.536 -21.558 33.962 -20.107 30.218 -19.349 C 32.385 -21.16 34.889 -22.545 37.566 -23.453 C 50.001 -27.414 62.994 -29.466 76.012 -30.152 C 80.441 -30.339 84.889 -30.182 89.282 -29.562 C 92.039 -29.195 94.711 -28.334 97.491 -28.13 C 95.891 -29.953 94.284 -31.795 92.448 -33.39 C 88.38 -34.064 84.365 -35.075 80.255 -35.466 C 66.954 -36.622 53.455 -35.473 40.558 -31.993 C 29.965 -28.9 19.541 -24.615 10.742 -17.839 C 5.278 -13.403 .891 -7.096 0 0 " fill="#efeee9"/>
<path transform="matrix(1,0,0,-1,329.4316,344.0869)" d="M 0 0 C 6.085 -5.561 13.86 -8.54 21.233 -11.929 C 15.203 -12.47 9.124 -14.077 3.063 -13.126 C 1.054 -12.892 -.204 -11.23 -1.264 -9.689 C -.98 -6.445 -.577 -3.208 0 0 " fill="#efeee9"/>
<path transform="matrix(1,0,0,-1,118.5718,207.3071)" d="M 0 0 C .385 .174 1.162 .523 1.553 .692 C 2.817 -.235 4.057 -1.191 5.272 -2.191 C 4.658 -2.407 4.044 -2.618 3.431 -2.834 C 2.703 -2.588 1.968 -2.347 1.234 -2.125 L 1.107 -2.425 C .722 -1.619 .355 -.812 0 0 " fill="#8e1539"/>
<path transform="matrix(1,0,0,-1,36.4873,213.59619)" d="M 0 0 C .487 1.577 1.938 2.582 3.009 3.743 C 3.575 2.576 4.357 1.438 4.514 .114 C 3.779 -1.348 2.606 -2.516 1.462 -3.666 C .945 -2.456 .331 -1.276 0 0 " fill="#8b1438"/>
<path transform="matrix(1,0,0,-1,122.0928,214.41501)" d="M 0 0 C .036 1.824 .145 4.292 2.57 4.267 C 2.876 4.171 3.491 3.966 3.792 3.87 L 3.551 3.569 C 2.889 2.63 1.643 1.649 2.299 .367 C 2.648 -.65 3.665 -2.708 4.905 -1.39 C 4.02 -.614 3.202 .241 2.883 1.409 C 3.671 1.071 4.459 .723 5.242 .361 C 6.295 -1.294 5.639 -3.075 4.887 -4.694 C 2.762 -4.038 1.757 -2.028 .337 -.505 L -.012 -.12 Z " fill="#8f1339"/>
<path transform="matrix(1,0,0,-1,130.8735,214.67969)" d="M 0 0 C 1.065 -.439 2.119 -.909 3.166 -1.39 L 3.256 -1.703 C 3.491 -2.479 3.719 -3.244 3.954 -4.02 C 1.83 -4.189 -.09 -3.238 -1.198 -1.414 C -.223 -1.703 .746 -2.004 1.727 -2.287 C 1.162 -1.511 .608 -.74 0 0 " fill="#8b1837"/>
<path transform="matrix(1,0,0,-1,133.1484,224.6221)" d="M 0 0 C 2.708 1.107 -.825 4.761 2.179 5.742 C 2.004 3.84 2.365 1.956 2.576 .072 C 2.991 .355 3.822 .915 4.237 1.198 C 2.696 1.643 3.473 3.353 2.756 4.363 C 3.822 4.953 5.025 5.122 6.223 5.272 C 7.409 4.628 8.685 4.153 10.045 4.062 C 10.55 3.316 11.056 2.57 11.567 1.83 C 10.027 1.113 9.118 2.287 8.33 3.449 C 8.233 2.931 8.046 1.884 7.95 1.366 C 6.681 .873 5.375 2.125 4.165 2.51 C 4.989 1.715 5.844 .945 6.578 .054 C 6.253 -.174 5.609 -.638 5.29 -.867 L 4.899 .668 C 4.189 -.379 3.539 -1.468 2.745 -2.449 C 2.251 -1.842 1.788 -1.228 1.288 -.638 C .548 -1.95 -.523 -1.45 -1.529 -.975 C -1.751 .241 -2.774 2.022 -1.444 2.931 C -.602 3.701 .121 2.227 .71 1.902 C .277 1.812 -.596 1.637 -1.029 1.553 C -1.077 .794 -.831 .145 0 0 " fill="#8c1538"/>
<path transform="matrix(1,0,0,-1,38.3589,244.7114)" d="M 0 0 C -.331 -1.029 -1.041 -2.04 -.903 -3.166 C -.199 -4.153 1.071 -4.707 2.269 -4.333 C 2.63 -2.618 1.553 -.771 0 0 M 3.599 5.994 C 2.167 4.008 2.425 1.246 3.731 -.734 C 3.93 1.493 4.37 3.828 3.599 5.994 M -4.273 9.768 C -4.718 6.963 -4.285 4.135 -3.521 1.433 C -2.467 2.425 -2.492 3.954 -2.443 5.29 C -2.443 6.921 -2.552 9.003 -4.273 9.768 M -1.276 9.016 C -1.432 6.65 -1.637 3.382 1.222 2.588 C 1.92 5.549 1.884 8.841 -.006 11.375 C -.433 10.604 -1.162 9.93 -1.276 9.016 M 1.92 15.883 C 1.234 14.143 1.475 12.091 2.871 10.767 C 4.104 12.277 2.769 14.348 2.341 15.943 C 2.233 15.931 2.028 15.9 1.92 15.883 M -2.63 15.516 C -2.69 14.751 -1.944 13.5 -1.047 13.999 C -.06 15.094 .15 16.623 .385 18.019 C -.818 17.501 -2.293 16.96 -2.63 15.516 M -.614 21.354 C 1.102 22.045 2.69 20.595 3.521 19.241 C 5.429 15.913 5.176 11.953 5.393 8.263 C 5.441 3.906 5.753 -.494 4.995 -4.809 C 4.646 -6.596 3.659 -8.775 1.595 -8.961 C -1.144 -8.811 -3.009 -6.374 -4.165 -4.123 C -6.65 1.071 -7.294 7.15 -5.964 12.753 C -5.146 16.003 -3.912 19.867 -.614 21.354 " fill="#8b1538"/>
<path transform="matrix(1,0,0,-1,408.8447,354.5469)" d="M 0 0 C 2.75 .072 6.192 -.668 8.401 1.354 C 5.561 1.974 2.461 1.607 0 0 M -6.494 4.454 C -7.108 3.117 -5.543 .854 -4.045 1.787 C -3.274 2.215 -1.95 2.552 -2.486 3.707 C -3.689 4.363 -5.14 4.881 -6.494 4.454 M .084 4.55 C .704 3.846 1.222 2.643 2.401 2.913 C 4.887 2.889 7.896 2.991 9.196 5.513 C 6.156 6.566 2.822 6.271 .084 4.55 M 11.513 4.297 C 12.302 4.051 13.048 3.37 13.933 3.629 C 14.991 4.297 15.299 5.549 15.533 6.692 C 13.914 6.452 12.524 5.573 11.513 4.297 M -3.636 6.416 C -1.349 5.977 1.511 5.741 3.142 7.77 C .818 7.733 -1.457 7.168 -3.636 6.416 M 8.209 7.8 C 9.773 6.566 11.994 7.216 13.505 8.233 C 12.223 8.45 10.929 8.667 9.629 8.667 C 9.124 8.673 7.823 8.601 8.209 7.8 M 3.599 9.558 C 7.715 10.104 11.994 11.514 16.093 10.141 C 17.664 9.581 19.554 8.228 19.042 6.308 C 18.482 3.996 16.526 2.377 14.673 1.065 C 8.624 -2.576 1.107 -3.768 -5.706 -1.823 C -7.596 -1.258 -9.257 -.108 -10.532 1.378 C -10.695 1.68 -11.02 2.281 -11.183 2.582 C -11.08 4.068 -10.4 5.543 -9.004 6.217 C -5.134 8.3 -.656 8.721 3.599 9.558 " fill="#8b1538"/>
<path transform="matrix(1,0,0,-1,440.1035,269.18159)" d="M 0 0 C 2.66 -2.913 4.713 -6.482 5.32 -10.424 C 6.079 -14.559 5.116 -18.771 3.6 -22.624 C 6.621 -21.715 9.611 -20.661 12.446 -19.259 C 8.48 -12.507 7.986 -4.328 8.932 3.273 C 5.946 2.208 2.974 1.106 0 0 M -35.755 10.61 C -37.157 2.961 -40.611 -4.61 -46.727 -9.611 C -43.981 -11.604 -41.322 -13.704 -38.644 -15.774 C -39.589 -11.64 -38.481 -7.24 -36.435 -3.605 C -34.533 -.115 -31.38 2.413 -28.1 4.543 C -30.381 6.866 -33.125 8.702 -35.755 10.61 M -24.393 16.057 C -24.861 12.523 -25.355 9.003 -25.896 5.482 C -17.91 8.618 -8.432 7.161 -1.799 1.696 C -1.306 5.067 -.806 8.438 -.385 11.819 C -8.497 9.503 -17.609 10.983 -24.393 16.057 M 11.562 28.202 C 11.959 25.138 11.658 21.895 10.057 19.198 C 8.264 15.99 5.08 13.914 1.812 12.439 C 4.496 10.279 7.108 8.016 9.468 5.494 C 10.268 11.675 12.717 18.596 18.766 21.413 C 16.473 23.784 14.126 26.113 11.562 28.202 M -40.232 30.741 C -34.623 26.848 -34.876 19.072 -35.231 13.005 C -32.276 14.606 -29.237 16.057 -26.119 17.326 C -28.665 19.764 -31.019 22.623 -31.909 26.101 C -32.781 29.086 -32.234 32.282 -30.922 35.044 C -34.1 33.775 -37.224 32.373 -40.232 30.741 M -6.776 43.296 C -4.52 42.622 -2.19 42.116 -.065 41.063 C 4.773 38.86 8.697 34.852 10.894 30.019 C 12.627 30.212 14.372 30.38 16.124 30.513 C 12.121 34.063 8.065 37.566 3.678 40.636 C 1.794 41.906 -.102 43.253 -2.274 43.97 C -3.81 44.018 -5.296 43.584 -6.776 43.296 M -35.051 38.975 C -33.371 38.174 -31.65 37.47 -29.983 36.64 C -25.187 42.543 -17.109 44.307 -9.834 43.813 C -11.688 44.957 -13.836 46.245 -16.087 45.553 C -22.641 44.132 -28.966 41.773 -35.051 38.975 M -47.473 32.234 C -35.797 45.023 -16.231 49.308 -.072 43.392 C 11.074 39.432 20.632 30.88 25.446 20.041 C 23.003 23.02 20.661 26.107 17.809 28.707 C 18.579 26.33 19.434 23.971 19.957 21.521 C 23.382 20.871 26.463 18.404 27.528 15.033 C 28.425 12.247 29.117 9.37 29.364 6.445 C 29.34 -4.466 24.314 -15.521 15.245 -21.829 C 14.661 -21.372 14.077 -20.92 13.5 -20.463 C 12.771 -22.004 11.977 -23.521 11.08 -24.977 C 9.118 -25.705 7.174 -26.476 5.236 -27.252 C 4.352 -26.139 3.479 -25.013 2.612 -23.888 C 1.096 -25.958 -.59 -27.932 -2.624 -29.509 C -11.651 -30.441 -21.004 -29.424 -29.243 -25.452 C -32.149 -24.122 -34.822 -22.358 -37.627 -20.848 C -38.042 -19.717 -38.354 -18.543 -38.668 -17.382 C -39.27 -17.772 -39.859 -18.17 -40.449 -18.562 C -43.031 -15.732 -45.781 -13.03 -47.882 -9.805 C -52.913 -2.312 -55.52 6.969 -54.201 15.973 C -53.569 20.203 -51.884 24.164 -50.373 28.135 C -48.146 30.633 -44.656 31.951 -41.322 31.524 C -40.058 33.769 -38.463 35.803 -37.103 37.994 C -40.792 36.519 -44.145 34.365 -47.473 32.234 " fill="#ffffff"/>
<path transform="matrix(1,0,0,-1,276.8613,324.6416)" d="M 0 0 C 3.876 3.383 9.653 3.828 14.348 2.04 C 11.393 1.564 8.348 .024 7.307 -2.973 C 5.296 -7.312 8.125 -12.957 12.843 -13.842 C 16.117 -14.787 19.277 -12.97 21.491 -10.688 C 20.619 -12.987 19.198 -15.214 16.96 -16.382 C 13.866 -18.176 9.967 -17.465 6.987 -15.798 C 5.073 -14.125 3.563 -12.001 1.408 -10.592 C .198 -9.611 -1.631 -9.075 -2.095 -7.433 C -2.991 -4.809 -2.106 -1.781 0 0 " fill="#ffffff"/>
<path transform="matrix(1,0,0,-1,140.5571,225.01322)" d="M 0 0 C 1.282 .566 2.63 1.149 4.056 .728 C 4.255 .5 4.652 .03 4.851 -.199 C 4.52 -.301 3.864 -.5 3.533 -.602 C 4.363 -1.655 5.808 -2.973 4.436 -4.261 C 3.46 -3.539 2.618 -2.66 1.697 -1.884 C 1.198 -2.094 .71 -2.335 .241 -2.606 C .156 -1.733 .078 -.867 0 0 " fill="#881539"/>
<path transform="matrix(1,0,0,-1,433.3271,225.88571)" d="M 0 0 C 1.48 .289 2.967 .722 4.502 .674 C 6.675 -.042 8.57 -1.39 10.454 -2.66 C 14.842 -5.729 18.897 -9.232 22.9 -12.783 C 21.148 -12.916 19.403 -13.084 17.67 -13.277 C 15.474 -8.444 11.55 -4.436 6.711 -2.233 C 4.586 -1.18 2.257 -.674 0 0 " fill="#020202"/>
<path transform="matrix(1,0,0,-1,35.729,229.1958)" d="M 0 0 C .337 1.444 1.812 1.986 3.015 2.503 C 2.78 1.107 2.57 -.421 1.583 -1.517 C .686 -2.016 -.06 -.765 0 0 " fill="#dbd9d6"/>
<path transform="matrix(1,0,0,-1,40.2788,228.82862)" d="M 0 0 C .108 .018 .313 .048 .421 .06 C .849 -1.535 2.185 -3.605 .951 -5.116 C -.445 -3.792 -.686 -1.74 0 0 " fill="#dddad6"/>
<path transform="matrix(1,0,0,-1,41.958,238.71729)" d="M 0 0 C .771 -2.167 .331 -4.501 .132 -6.729 C -1.174 -4.748 -1.433 -1.986 0 0 " fill="#dddad6"/>
<path transform="matrix(1,0,0,-1,38.3589,244.7114)" d="M 0 0 C 1.553 -.771 2.63 -2.618 2.269 -4.333 C 1.071 -4.707 -.199 -4.153 -.903 -3.166 C -1.041 -2.04 -.331 -1.029 0 0 " fill="#dddad6"/>
<path transform="matrix(1,0,0,-1,217.0869,232.41599)" d="M 0 0 C .896 .103 .812 -2.028 -.06 -1.937 C -.5 -1.282 -.481 -.638 0 0 " fill="#1d3d37"/>
<path transform="matrix(1,0,0,-1,399.8711,238.4404)" d="M 0 0 C 3.009 1.631 6.133 3.034 9.311 4.303 C 7.998 1.541 7.451 -1.655 8.323 -4.64 C 9.214 -8.119 11.567 -10.978 14.113 -13.415 C 10.995 -14.685 7.956 -16.135 5.001 -17.736 C 5.356 -11.669 5.609 -3.894 0 0 "/>
<path transform="matrix(1,0,0,-1,451.665,240.98001)" d="M 0 0 C 2.564 -2.088 4.911 -4.417 7.204 -6.789 C 1.155 -9.605 -1.294 -16.527 -2.094 -22.708 C -4.453 -20.186 -7.065 -17.922 -9.75 -15.762 C -6.481 -14.288 -3.298 -12.211 -1.505 -9.003 C .097 -6.307 .397 -3.063 0 0 "/>
<path transform="matrix(1,0,0,-1,415.7109,253.125)" d="M 0 0 C 6.783 -5.073 15.896 -6.554 24.008 -4.237 C 23.587 -7.619 23.087 -10.989 22.594 -14.36 C 15.961 -8.896 6.482 -7.438 -1.504 -10.574 C -.963 -7.054 -.469 -3.533 0 0 "/>
<path transform="matrix(1,0,0,-1,404.3486,258.5713)" d="M 0 0 C 2.63 -1.908 5.374 -3.744 7.655 -6.067 C 4.375 -8.197 1.222 -10.726 -.68 -14.216 C -2.727 -17.851 -3.834 -22.25 -2.889 -26.385 C -5.567 -24.314 -8.227 -22.214 -10.972 -20.222 C -4.856 -15.221 -1.402 -7.649 0 0 "/>
<path transform="matrix(1,0,0,-1,440.1035,269.18159)" d="M 0 0 C 2.974 1.106 5.946 2.208 8.932 3.273 C 7.986 -4.328 8.48 -12.507 12.446 -19.259 C 9.611 -20.661 6.621 -21.715 3.6 -22.624 C 5.116 -18.771 6.079 -14.559 5.32 -10.424 C 4.713 -6.482 2.66 -2.913 0 0 "/>
<path transform="matrix(1,0,0,-1,437.4795,298.6904)" d="M 0 0 C 2.034 1.577 3.72 3.551 5.236 5.621 C 6.104 4.496 6.976 3.37 7.86 2.257 C 8.486 1.457 9.112 .668 9.763 -.132 C 2.264 -3.256 -5.212 -6.434 -12.518 -9.973 C -14.064 -8.203 -15.545 -6.373 -17.05 -4.574 C -11.037 -5.368 -4.73 -3.863 0 0 "/>
<path transform="matrix(1,0,0,-1,284.5713,310.42579)" d="M 0 0 C 6.162 -.042 12.337 1.209 18.494 .427 C 22.256 .192 24.254 -3.497 25.746 -6.482 C 26.408 -7.571 26.45 -9.316 27.877 -9.702 C 27.757 -7.234 26.703 -5.002 25.656 -2.823 C 26.781 -3.906 27.955 -5.044 28.412 -6.597 C 28.358 -7.571 28.311 -8.559 28.136 -9.533 C 27.6 -10.243 26.517 -9.925 25.758 -10.171 L 26.336 -9.413 C 25.542 -8.992 24.759 -8.57 23.953 -8.191 C 13.998 -4.093 2.624 -5.086 -7.054 -.114 C -6.127 -.03 -5.212 .054 -4.273 .096 C -2.854 .012 -1.433 0 0 0 "/>
<path transform="matrix(1,0,0,-1,34.0859,234.94339)" d="M 0 0 C 1.721 -.765 1.83 -2.847 1.83 -4.478 C 1.781 -5.814 1.806 -7.343 .752 -8.335 C -.012 -5.633 -.445 -2.805 0 0 " fill="#dfd7d5"/>
<path transform="matrix(1,0,0,-1,216.6172,234.9253)" d="M 0 0 C .524 -2.985 .319 -6.024 .253 -9.04 C -.674 -8.721 -1.173 -7.896 -.963 -6.927 C -.692 -4.616 -.265 -2.317 0 0 " fill="#225a51"/>
<path transform="matrix(1,0,0,-1,52.9897,245.0664)" d="M 0 0 C -.807 2.606 -1.878 5.32 -1.167 8.083 C 3.37 1.763 9.1 -3.653 15.545 -7.998 C 24.477 -14.083 34.521 -18.32 44.734 -21.744 C 51.938 -24.164 59.456 -25.675 67.044 -26.138 C 74.243 -26.475 81.398 -24.646 87.875 -21.57 C 87.7 -22.364 87.327 -23.116 86.514 -23.424 C 82.042 -25.747 77.499 -28.027 72.642 -29.454 C 63.789 -32.114 54.617 -33.998 45.336 -34.064 C 38.241 -33.938 31.109 -32.843 24.453 -30.326 C 15.858 -26.842 8.227 -20.396 4.399 -11.832 C 2.456 -8.077 1.36 -3.984 0 0 " fill="#fafaf8"/>
<path transform="matrix(1,0,0,-1,262.375,275.0859)" d="M 0 0 C 3.894 1.685 8.028 2.973 12.302 3.147 C 22.431 3.515 32.415 .668 41.491 -3.659 L 41.334 -3.707 C 37.423 -5.001 33.233 -4.93 29.165 -5.188 C 20.872 -4.947 12.542 -4.225 4.46 -2.257 C 2.853 -1.872 1.45 -.963 .097 -.066 Z " fill="#fafaf8"/>
<path transform="matrix(1,0,0,-1,384.1152,346.49409)" d="M 0 0 C .229 -.854 .523 -1.823 1.323 -2.329 C 3.671 -2.293 5.939 -1.631 8.227 -1.18 C 7.715 -.355 7.204 .463 6.692 1.27 C 4.441 .975 2.148 .782 0 0 M 49.699 .061 C 50.987 -.47 52.323 -.938 53.731 -1.06 C 54.947 -.024 55.796 1.36 56.747 2.63 C 55.556 3.087 54.334 3.521 53.052 3.575 C 51.697 2.654 50.795 1.239 49.699 .061 M -49.063 19.794 C -48.599 20.92 -48.129 22.039 -47.654 23.158 C -35.49 17.772 -22.984 13.138 -10.142 9.636 C 7.986 4.628 27.215 1.312 45.914 4.978 C 52.233 6.163 58.45 8.384 63.626 12.277 C 62.073 4.706 57.644 -1.77 52.637 -7.48 C 48.225 -7.265 43.735 -8.047 39.402 -6.987 C 41.256 -5.676 43.212 -4.057 43.771 -1.745 C 44.283 .175 42.394 1.528 40.822 2.088 C 36.724 3.461 32.444 2.052 28.328 1.505 C 24.073 .668 19.596 .247 15.726 -1.836 C 14.329 -2.51 13.649 -3.984 13.547 -5.471 C 8.209 -5.05 2.948 -4.015 -2.312 -3.088 C -11.893 -1.228 -21.546 1.089 -30.188 5.76 C -36.568 8.751 -42.472 12.741 -47.642 17.525 C -48.117 18.284 -48.593 19.042 -49.063 19.794 " fill="#fafaf8"/>
<path transform="matrix(1,0,0,-1,216.3647,245.855)" d="M 0 0 C 1.402 -1.023 1.486 -2.865 1.992 -4.387 C 2.907 -7.77 4.357 -10.971 6.066 -14.017 C 5.832 -15.551 6.554 -16.978 6.668 -18.482 C 2.07 -13.578 .391 -6.548 0 0 " fill="#efefea"/>
<path transform="matrix(1,0,0,-1,221.0469,249.9233)" d="M 0 0 C 2.377 -1.95 4.917 -3.761 7.06 -5.976 C 8.004 -8.655 8.835 -11.386 10.105 -13.945 C 9.395 -13.572 8.685 -13.186 7.98 -12.807 C 7.589 -11.808 7.36 -10.718 6.777 -9.816 C 5.814 -8.877 4.375 -9.136 3.16 -9.064 C 1.336 -6.374 .445 -3.184 0 0 " fill="#efefe9"/>
<path transform="matrix(1,0,0,-1,230.189,257.4463)" d="M 0 0 C 7.318 -5.898 14.871 -11.483 22.292 -17.242 C 17.543 -16.298 13.132 -14.287 8.672 -12.47 C 8.6 -10.941 7.757 -9.816 6.512 -9.016 C 6.319 -7.035 4.441 -6.512 2.774 -6.211 C 1.709 -4.207 .836 -2.106 0 0 " fill="#efefe9"/>
<path transform="matrix(1,0,0,-1,225.8135,263.9697)" d="M 0 0 C 1.36 .006 2.654 -.397 3.797 -1.132 C 4.261 -3.16 5.314 -4.936 7.324 -5.718 C 7.673 -7.072 6.066 -7.307 5.091 -7.192 C 3.683 -6.097 4.779 -3.889 3.545 -2.643 C 2.78 -1.758 1.493 -1.812 .458 -1.505 C .343 -1.132 .114 -.38 0 0 " fill="#eeefea"/>
<path transform="matrix(1,0,0,-1,234.438,270.3682)" d="M 0 0 C .21 .055 .625 .157 .836 .211 C 5.609 -2.221 10.616 -4.194 15.702 -5.892 C 15.082 -6.312 14.691 -7.39 13.782 -7.102 C 9.876 -6.686 6.15 -5.302 2.503 -3.911 C 2.449 -3.472 2.335 -2.588 2.275 -2.148 C 1.486 -1.468 .583 -.878 0 0 " fill="#dadad6"/>
<path transform="matrix(1,0,0,-1,227.8535,270.7529)" d="M 0 0 C 1.342 -.626 1.95 -1.962 2.624 -3.189 C 3.677 -3.713 4.809 -4.141 5.687 -4.965 C 8.48 -7.415 11.489 -9.587 14.45 -11.832 C 14.444 -12.964 14.486 -14.101 14.564 -15.238 C 12.188 -15.984 10.623 -13.722 9.088 -12.332 C 5.646 -8.576 2.149 -4.664 0 0 " fill="#dad9d6"/>
<path transform="matrix(1,0,0,-1,238.9517,277.22853)" d="M 0 0 C 2.949 -.506 5.832 -1.354 8.739 -2.082 C 7.691 -2.468 6.656 -2.913 5.567 -3.153 C 3.527 -2.485 1.739 -1.216 0 0 " fill="#dad9d6"/>
<path transform="matrix(1,0,0,-1,292.5937,366.3252)" d="M 0 0 C 5.326 1.848 11.007 2.131 16.58 2.546 C 15.773 1.975 14.889 1.511 13.92 1.288 C 8.558 -.126 3.178 -1.498 -2.251 -2.672 C -3.72 -3.015 -5.248 -2.99 -6.735 -2.798 C -4.49 -1.871 -2.312 -.77 0 0 " fill="#dad9d6"/>
<path transform="matrix(1,0,0,-1,251.6924,279.74409)" d="M 0 0 C 1.047 .993 2.287 1.77 3.792 1.655 C 3.063 1.281 2.323 .927 1.583 .584 C 1.938 .331 2.299 .072 2.666 -.181 C 3.28 -.145 4.508 -.072 5.122 -.042 C 3.96 -1.48 2.738 -2.865 1.577 -4.304 C .795 -3.37 .879 -2.137 1.601 -1.168 C 1.077 -.759 .529 -.379 0 0 " fill="#747474"/>
<path transform="matrix(1,0,0,-1,255.0566,283.1807)" d="M 0 0 C .873 .692 1.775 1.348 2.708 1.956 C 3.238 1.54 3.773 1.125 4.31 .704 C 3.798 -.091 3.292 -.891 2.811 -1.703 C 1.872 -1.138 .933 -.565 0 0 " fill="#747474"/>
<path transform="matrix(1,0,0,-1,277.4268,294.85639)" d="M 0 0 C -2.605 .301 -2.112 3.418 -1.071 5.056 C -.396 4.833 .283 4.61 .963 4.381 C .645 2.919 .325 1.463 0 0 " fill="#747474"/>
<path transform="matrix(1,0,0,-1,279.4736,290.8662)" d="M 0 0 C 1.113 -.187 2.232 -.403 3.346 -.626 C 3.003 -2.131 2.66 -3.635 2.293 -5.134 C 1.384 -4.863 .481 -4.586 -.422 -4.315 C -.512 -2.858 -.416 -1.402 0 0 " fill="#747474"/>
<path transform="matrix(1,0,0,-1,283.3135,296.4697)" d="M 0 0 C -.024 1.541 .18 3.069 .788 4.49 C 1.907 4.207 3.039 3.918 4.164 3.623 C 3.905 2.179 3.629 .734 3.304 -.698 C 2.19 -.493 1.089 -.271 0 0 " fill="#747474"/>
<path transform="matrix(1,0,0,-1,288.4951,293.26759)" d="M 0 0 C 1.264 -.217 2.527 -.47 3.779 -.776 C 3.388 -2.227 2.937 -3.665 2.455 -5.098 C 1.468 -4.887 .481 -4.677 -.5 -4.46 C -.392 -2.967 -.241 -1.48 0 0 " fill="#747474"/>
<path transform="matrix(1,0,0,-1,293.46,294.48933)" d="M 0 0 C 1.132 -.198 2.269 -.415 3.412 -.638 C 3.166 -1.752 2.895 -2.865 2.636 -3.979 C 1.433 -3.695 .223 -3.431 -.98 -3.178 C -.614 -2.131 -.301 -1.065 0 0 " fill="#747474"/>
<path transform="matrix(1,0,0,-1,298.1299,295.5723)" d="M 0 0 C 1.144 -.266 2.293 -.542 3.443 -.831 C 3.124 -2.228 2.938 -3.78 1.836 -4.827 C .807 -4.881 -.18 -4.551 -1.173 -4.363 C -.866 -2.883 -.463 -1.433 0 0 " fill="#747474"/>
<path transform="matrix(1,0,0,-1,275.1582,298.34669)" d="M 0 0 C .421 .589 .65 1.372 1.3 1.757 C 2.311 1.769 3.28 1.365 4.249 1.101 C 4.062 .427 3.876 -.253 3.695 -.934 C 2.462 -.626 1.228 -.313 0 0 " fill="#747474"/>
<path transform="matrix(1,0,0,-1,301.8193,301.16993)" d="M 0 0 C .205 1.517 .554 3.01 .976 4.478 C 1.998 4.249 3.027 4.009 4.057 3.756 C 3.96 2.396 3.533 1.102 2.859 -.078 C 1.902 -.048 .951 -.024 0 0 " fill="#747474"/>
<path transform="matrix(1,0,0,-1,280.8096,297.71479)" d="M 0 0 C 1.155 -.241 2.317 -.518 3.467 -.812 C 3.262 -1.674 3.058 -2.528 2.853 -3.389 C 1.528 -2.932 .204 -2.479 -1.119 -2.034 C -.746 -1.354 -.373 -.681 0 0 " fill="#747474"/>
<path transform="matrix(1,0,0,-1,305.6895,302.08503)" d="M 0 0 C .607 1.463 1.083 2.979 1.486 4.508 C 5.212 4.49 2.961 -1.648 0 0 " fill="#747474"/>
<path transform="matrix(1,0,0,-1,310.3955,298.2988)" d="M 0 0 C .71 -.428 1.812 -.451 2.209 -1.282 C 2.312 -2.582 1.499 -3.678 .897 -4.749 C .181 -4.7 -.529 -4.652 -1.239 -4.61 C -.758 -3.094 -.343 -1.553 0 0 " fill="#747474"/>
<path transform="matrix(1,0,0,-1,293.4658,300.9111)" d="M 0 0 C 1.09 -.289 2.179 -.584 3.274 -.879 C 3.136 -1.764 3.004 -2.647 2.889 -3.539 C 1.794 -3.159 .687 -2.799 -.396 -2.383 C -.373 -2.064 -.337 -1.426 -.318 -1.107 C -.234 -.83 -.078 -.276 0 0 " fill="#747474"/>
<path transform="matrix(1,0,0,-1,323.2812,301.30183)" d="M 0 0 C .885 -.055 1.775 -.108 2.666 -.175 C 2.75 -1.035 2.828 -1.902 2.919 -2.769 C 1.974 -2.643 1.035 -2.522 .103 -2.401 C .066 -1.602 .03 -.795 0 0 " fill="#747474"/>
<path transform="matrix(1,0,0,-1,302.8369,303.2041)" d="M 0 0 C .957 -.24 2.021 -.265 2.889 -.801 C 3.027 -1.613 3.105 -2.426 3.117 -3.256 C 2.058 -2.997 1.005 -2.738 -.049 -2.474 C -.042 -2.01 -.024 -1.089 -.019 -.626 Z " fill="#747474"/>
<path transform="matrix(1,0,0,-1,244.9219,285.43159)" d="M 0 0 C .403 1.944 2.185 3.069 4.123 2.702 C 2.829 1.686 1.438 .801 0 0 " fill="#464646"/>
<path transform="matrix(1,0,0,-1,256.9346,286.918)" d="M 0 0 C -1.36 .896 -2.636 1.992 -1.878 3.737 C -.945 3.172 -.006 2.6 .933 2.034 C .626 1.354 .312 .68 0 0 " fill="#49494b"/>
<path transform="matrix(1,0,0,-1,322.3125,305.64753)" d="M 0 0 C .36 1.438 .68 2.889 .969 4.346 C .999 3.551 1.035 2.744 1.071 1.944 C 2.004 1.823 2.942 1.703 3.888 1.577 C 3.538 1.018 3.178 .47 2.798 -.066 C 1.871 -.295 .921 -.03 0 0 " fill="#49494b"/>
<path transform="matrix(1,0,0,-1,260.3594,283.3496)" d="M 0 0 C .878 -.174 1.654 -.662 2.449 -1.065 L 2.01 -1.745 C 1.667 -2.269 1.323 -2.798 .986 -3.334 C .072 -2.864 -.843 -2.401 -1.752 -1.932 C -1.198 -1.264 -.662 -.565 0 0 " fill="#757574"/>
<path transform="matrix(1,0,0,-1,247.6904,284.6377)" d="M 0 0 C 1.065 1.006 2.509 .259 3.731 .036 C 2.383 -.963 .945 -1.926 .144 -3.46 C -.385 -3.273 -.909 -3.087 -1.433 -2.906 C -1.15 -1.865 -1.029 -.607 0 0 " fill="#555557"/>
<path transform="matrix(1,0,0,-1,258.4033,287.5928)" d="M 0 0 C .065 .776 .138 1.541 .204 2.312 C 1.113 1.842 2.028 1.379 2.942 .909 C 3.279 1.445 3.623 1.975 3.966 2.498 L 3.731 1.493 L 4.742 1.402 C 4.55 1.018 4.369 .633 4.194 .235 C 4.803 -.162 5.404 -.571 6.006 -.992 C 6.301 -1.54 5.789 -2.395 5.747 -3.051 C 5.14 -2.575 4.495 -2.148 3.96 -1.589 C 3.941 -.571 3.96 .446 4.02 1.457 C 3.315 .717 2.864 -.168 2.666 -1.197 C 1.763 -.83 .872 -.427 0 0 " fill="#515055"/>
<path transform="matrix(1,0,0,-1,263.1455,286.1904)" d="M 0 0 C .265 1.499 1.745 .668 2.636 .452 C 2.179 -.499 1.722 -1.444 1.264 -2.395 C .662 -1.974 .061 -1.564 -.548 -1.167 C -.373 -.77 -.192 -.385 0 0 " fill="#686868"/>
<path transform="matrix(1,0,0,-1,250.0376,286.83399)" d="M 0 0 C 1.415 .866 2.967 .59 4.225 -.392 C 3.888 -.723 3.208 -1.384 2.865 -1.715 C 1.902 -1.149 .945 -.578 0 0 " fill="#676768"/>
<path transform="matrix(1,0,0,-1,265.6191,288.0313)" d="M 0 0 C .729 1.053 1.806 1.685 3.063 1.071 C 2.407 -.403 1.848 -1.927 1.486 -3.509 C 1.083 -3.286 .68 -3.063 .283 -2.847 C .192 -1.896 .103 -.945 0 0 " fill="#737373"/>
<path transform="matrix(1,0,0,-1,320.1934,300.7363)" d="M 0 0 C .572 -.114 1.144 -.247 1.716 -.409 C 2.546 -1.547 1.547 -2.901 1.192 -4.038 C .5 -4.081 -.192 -4.129 -.878 -4.183 C -.565 -2.793 -.271 -1.396 0 0 " fill="#737373"/>
<path transform="matrix(1,0,0,-1,327.4033,301.5791)" d="M 0 0 C 1.469 .072 2.564 -.662 2.774 -2.179 C 1.71 -2.232 .65 -2.281 -.402 -2.329 C -.276 -1.553 -.144 -.776 0 0 " fill="#737373"/>
<path transform="matrix(1,0,0,-1,335.2334,307.80183)" d="M 0 0 C 1.836 -.403 1.962 -2.401 1.438 -3.87 C 1.36 -3.413 1.21 -2.498 1.132 -2.04 C .74 -1.36 .361 -.681 0 0 " fill="#737373"/>
<path transform="matrix(1,0,0,-1,249.0264,288.8506)" d="M 0 0 C .289 .698 .65 1.354 1.011 2.017 C 1.956 1.438 2.913 .867 3.876 .302 C 3.358 -.385 3.25 -1.582 2.305 -1.805 C 1.432 -1.414 .289 -1.017 0 0 " fill="#4f4e53"/>
<path transform="matrix(1,0,0,-1,399.6543,287.7432)" d="M 0 0 C .59 .392 1.18 .789 1.781 1.18 C 2.095 .019 2.407 -1.155 2.822 -2.286 C 5.387 -9.226 12.151 -13.607 19.048 -15.449 C 17.074 -16.599 15.245 -18.224 13.018 -18.801 C 7.541 -13.054 1.733 -7.619 -4.52 -2.72 C -3.003 -1.829 -1.486 -.944 0 0 " fill="#020101"/>
<path transform="matrix(1,0,0,-1,269.3682,288.3027)" d="M 0 0 C .53 .843 1.649 .199 2.414 .229 C 2.053 -1.366 1.733 -2.967 1.469 -4.573 C .782 -4.303 .097 -4.032 -.577 -3.773 C -.565 -2.503 -1.077 -.98 0 0 " fill="#606060"/>
<path transform="matrix(1,0,0,-1,253.6729,288.9404)" d="M 0 0 C 1.42 1.174 2.942 .512 4.303 -.325 C 3.833 -1.005 3.364 -1.686 2.9 -2.365 C 1.926 -1.583 .957 -.794 0 0 " fill="#6a6a6c"/>
<path transform="matrix(1,0,0,-1,253.2812,291.5527)" d="M 0 0 C -.451 .831 .265 1.758 .392 2.612 C 1.349 1.818 2.317 1.029 3.292 .247 C 3.111 -.367 2.925 -.986 2.744 -1.606 C 1.812 -1.101 .831 -.662 0 0 " fill="#504f54"/>
<path transform="matrix(1,0,0,-1,273.0039,288.91023)" d="M 0 0 C .734 -.114 1.45 -.301 2.179 -.481 C 1.937 -1.427 1.703 -2.365 1.48 -3.316 C .619 -2.877 -.241 -2.432 -1.096 -1.998 C -.807 -1.282 -.445 -.62 0 0 " fill="#747475"/>
<path transform="matrix(1,0,0,-1,257.4941,292.41889)" d="M 0 0 C -.054 1.901 2.064 2.594 3.569 1.872 C 2.997 .463 2.407 -.945 1.83 -2.359 C .951 -1.787 -.343 -1.306 0 0 " fill="#5e5e5e"/>
<path transform="matrix(1,0,0,-1,271.7393,290.81843)" d="M 0 0 L .169 -.09 C 1.023 -.523 1.884 -.969 2.745 -1.408 C 2.685 -2.034 2.624 -2.666 2.564 -3.292 C .759 -3.039 -.12 -1.751 0 0 " fill="#3e3f41"/>
<path transform="matrix(1,0,0,-1,262.002,291.53999)" d="M 0 0 C .776 -.247 1.571 -.512 2.354 -.771 C 1.817 -1.986 1.33 -3.227 .891 -4.484 C .277 -4.237 -.331 -4.015 -.909 -3.72 C -1.583 -2.39 -.638 -1.113 0 0 " fill="#525253"/>
<path transform="matrix(1,0,0,-1,264.3369,294.832)" d="M 0 0 C .156 1.848 2.064 1.949 3.431 1.408 C 3.046 .108 2.672 -1.186 2.306 -2.486 C 1.119 -2.215 -.674 -1.583 0 0 " fill="#5f5f61"/>
<path transform="matrix(1,0,0,-1,267.9062,295.2412)" d="M 0 0 C .933 1.095 2.244 .95 3.515 .619 C 3.136 -.669 2.732 -1.956 2.329 -3.238 C 1.745 -3.07 1.174 -2.883 .613 -2.679 C .181 -1.866 .21 -.879 0 0 " fill="#656469"/>
<path transform="matrix(1,0,0,-1,271.6494,296.71003)" d="M 0 0 C .421 .476 .837 .957 1.252 1.444 C 1.848 1.275 2.426 1.059 2.985 .788 C 3.124 -.487 2.377 -1.709 2.101 -2.943 C .392 -2.889 -.042 -1.486 0 0 " fill="#68686a"/>
<path transform="matrix(1,0,0,-1,292.4795,297.667)" d="M 0 0 C 1.203 -.253 2.413 -.518 3.616 -.801 C 3.105 -2.606 -.518 -1.896 0 0 " fill="#484848"/>
<path transform="matrix(1,0,0,-1,275.1582,298.34669)" d="M 0 0 C 1.228 -.313 2.462 -.626 3.695 -.934 C 3.533 -1.529 3.376 -2.125 3.226 -2.721 C 2.196 -2.45 1.18 -2.173 .162 -1.896 C .12 -1.421 .042 -.47 0 0 " fill="#4e4f51"/>
<path transform="matrix(1,0,0,-1,314.2119,308.0664)" d="M 0 0 C .95 -.013 1.907 -.019 2.87 -.03 C 2.605 -.831 2.358 -1.644 2.118 -2.45 C 1.275 -2.359 .438 -2.275 -.392 -2.186 C -.266 -1.457 -.133 -.729 0 0 " fill="#4e4f51"/>
<path transform="matrix(1,0,0,-1,285.5996,298.9072)" d="M 0 0 C .759 -.181 1.529 -.354 2.281 -.596 C 3.876 -.619 2.877 -2.413 2.883 -3.279 C 1.632 -3.021 .386 -2.762 -.86 -2.503 C -.577 -1.667 -.288 -.83 0 0 " fill="#737374"/>
<path transform="matrix(1,0,0,-1,314.0791,299.02729)" d="M 0 0 C .704 -.518 1.95 -.758 1.872 -1.854 C 1.842 -2.858 1.258 -3.737 .902 -4.652 C .12 -4.622 -.662 -4.598 -1.433 -4.574 C -1.047 -3.021 -.59 -1.486 0 0 " fill="#747472"/>
<path transform="matrix(1,0,0,-1,279.8525,301.6094)" d="M 0 0 C -.097 .62 -.126 1.24 -.162 1.86 C 1.161 1.415 2.485 .963 3.81 .506 C 3.762 .145 3.659 -.571 3.611 -.933 C 2.39 -.698 1.144 -.505 0 0 " fill="#404144"/>
<path transform="matrix(1,0,0,-1,289.9336,300.25489)" d="M 0 0 C .734 -.055 1.468 -.114 2.208 -.175 C 2.082 -1.601 1.859 -3.063 1.022 -4.268 C .451 -4.46 -.169 -4.165 -.734 -4.146 C -.506 -2.763 -.253 -1.378 0 0 " fill="#737375"/>
<path transform="matrix(1,0,0,-1,333.1572,300.6045)" d="M 0 0 C 1.378 -1.354 1.703 -3.298 2.257 -5.067 C 2.004 -4.586 1.499 -3.623 1.252 -3.142 C 1.149 -3.61 .951 -4.55 .849 -5.019 C .879 -3.298 .451 -1.637 0 0 " fill="#737375"/>
<path transform="matrix(1,0,0,-1,316.998,299.8281)" d="M 0 0 C .649 -.252 1.288 -.523 1.92 -.824 C 2.365 -2.136 1.577 -3.346 .969 -4.447 C .56 -4.441 -.253 -4.429 -.656 -4.423 C -.409 -2.954 -.198 -1.474 0 0 " fill="#757575"/>
<path transform="matrix(1,0,0,-1,297.4326,304.5645)" d="M 0 0 C .421 .698 .042 2.528 1.306 2.245 C 2.172 2.179 3.026 1.986 3.894 1.836 C 3.936 1.023 3.978 .211 4.02 -.607 C 2.678 -.409 1.342 -.204 0 0 " fill="#757575"/>
<path transform="matrix(1,0,0,-1,284.7393,301.41023)" d="M 0 0 C 1.246 -.259 2.492 -.518 3.743 -.776 C 3.527 -1.33 3.316 -1.896 3.111 -2.462 C 2.095 -2.233 1.077 -2.005 .061 -1.775 C .042 -1.33 .012 -.445 0 0 " fill="#4b4b4d"/>
<path transform="matrix(1,0,0,-1,330.8828,306.502)" d="M 0 0 C .373 1.601 -.97 4.628 1.33 5.02 C 2.708 3.286 2.027 .837 0 0 " fill="#61646c"/>
<path transform="matrix(1,0,0,-1,292.3828,305.1416)" d="M 0 0 C .229 1.053 .47 2.094 .765 3.123 C .746 2.805 .71 2.166 .687 1.848 C 1.77 1.432 2.877 1.071 3.972 .691 C 3.389 -1.33 1.444 -.35 0 0 " fill="#4d4d51"/>
<path transform="matrix(1,0,0,-1,301.9219,307.4707)" d="M 0 0 C .289 1.216 .59 2.431 .896 3.641 C .891 3.178 .873 2.257 .866 1.793 C 1.92 1.528 2.973 1.27 4.032 1.011 C 3.798 .469 3.569 -.078 3.347 -.632 C 2.221 -.464 1.102 -.265 0 0 " fill="#48484a"/>
<path transform="matrix(1,0,0,-1,327.001,303.9082)" d="M 0 0 C 1.053 .048 2.112 .097 3.177 .15 C 2.889 -.632 2.617 -1.427 2.353 -2.221 C 1.39 -2.232 .427 -2.245 -.524 -2.257 C -.355 -1.505 -.181 -.752 0 0 " fill="#4e4f53"/>
<path transform="matrix(1,0,0,-1,324.8096,308.8613)" d="M 0 0 C 1.09 -.542 2.257 -.47 3.37 -.006 C 3.274 -1.228 3.19 -2.462 3.052 -3.689 C 1.962 -3.599 .879 -3.509 -.204 -3.418 C -.145 -2.274 -.072 -1.138 0 0 " fill="#4e4f53"/>
<path transform="matrix(1,0,0,-1,297.2217,304.53419)" d="M 0 0 L .211 -.03 C 1.553 -.234 2.889 -.439 4.23 -.638 C 3.93 -1.294 3.635 -1.95 3.346 -2.612 C 2.166 -2.317 1.005 -2.01 -.15 -1.667 C -.114 -1.252 -.036 -.415 0 0 " fill="#4f4f53"/>
<path transform="matrix(1,0,0,-1,321.2412,306.7793)" d="M 0 0 C .896 -.307 2.058 -.457 2.485 -1.456 C 2.78 -2.744 2.365 -4.044 2.046 -5.284 C 1.306 -5.169 .571 -5.049 -.163 -4.935 C -.061 -3.292 -.019 -1.648 0 0 " fill="#4f4f53"/>
<path transform="matrix(1,0,0,-1,307.3086,304.20899)" d="M 0 0 C 1.589 -.036 2.215 -1.366 2.455 -2.744 C 1.528 -2.666 .607 -2.582 -.308 -2.504 C -.211 -1.667 -.108 -.831 0 0 " fill="#6c6c6d"/>
<path transform="matrix(1,0,0,-1,310.835,305.0098)" d="M 0 0 C 1.444 -.036 2.348 -.866 2.618 -2.28 C 1.619 -2.438 .632 -2.582 -.349 -2.786 C -.253 -1.854 -.132 -.927 0 0 " fill="#757577"/>
<path transform="matrix(1,0,0,-1,314.6084,305.47273)" d="M 0 0 C 1.252 -.409 2.209 -1.282 2.474 -2.624 C 1.511 -2.612 .554 -2.606 -.396 -2.594 C -.271 -1.728 -.138 -.861 0 0 " fill="#6a6a6b"/>
<path transform="matrix(1,0,0,-1,317.7559,306.26759)" d="M 0 0 C .903 -.445 2.251 -.577 2.528 -1.739 C 2.522 -2.828 2.323 -3.912 2.161 -4.995 C 1.366 -4.911 .572 -4.826 -.216 -4.748 C .072 -3.178 .127 -1.583 0 0 " fill="#4f5052"/>
<path transform="matrix(1,0,0,-1,306.4902,308.61433)" d="M 0 0 C .162 .638 .337 1.27 .511 1.901 C 1.426 1.823 2.347 1.739 3.273 1.661 C 2.9 .963 2.539 .265 2.179 -.439 C 1.45 -.295 .722 -.145 0 0 " fill="#4f4f51"/>
<path transform="matrix(1,0,0,-1,310.4863,307.7959)" d="M 0 0 C .98 .204 1.968 .349 2.967 .506 C 2.642 -.343 2.323 -1.198 2.01 -2.053 C 1.144 -1.884 .282 -1.716 -.578 -1.547 C -.434 -1.162 -.145 -.392 0 0 " fill="#4a4a4c"/>
<path transform="matrix(1,0,0,-1,324.5273,307.333)" d="M 0 0 C 1.354 -.144 2.72 -.433 3.652 -1.534 C 2.539 -1.998 1.372 -2.07 .282 -1.528 C .21 -1.144 .072 -.385 0 0 " fill="#606161"/>
<path transform="matrix(1,0,0,-1,336.8281,307.4473)" d="M 0 0 C .825 .217 1.138 -.096 .934 -.95 C .103 -1.161 -.204 -.842 0 0 " fill="#40403e"/>
<path transform="matrix(1,0,0,-1,328.8418,307.8623)" d="M 0 0 C 2.751 .259 4.111 -2.769 3.232 -5.056 C 2.245 -4.971 1.276 -4.887 .301 -4.809 C .277 -3.202 .175 -1.595 0 0 " fill="#505053"/>
<path transform="matrix(1,0,0,-1,332.3203,307.8145)" d="M 0 0 C 2.486 .103 3.299 -2.395 3.221 -4.441 C 2.739 -4.501 1.788 -4.634 1.312 -4.7 C 1.138 -3.063 .639 -1.504 0 0 " fill="#545456"/>
<path transform="matrix(1,0,0,-1,286.6953,325.0986)" d="M 0 0 C 1.68 .854 3.509 1.914 5.471 1.456 C 7.252 1.144 8.468 -.289 9.672 -1.517 C 8.474 -1.023 7.301 -.409 6.013 -.192 C 4.538 -.127 3.232 -.933 1.914 -1.469 C 1.349 -1.035 .776 -.603 .217 -.169 Z " fill="#7b4239"/>
<path transform="matrix(1,0,0,-1,284.4805,359.6807)" d="M 0 0 C -.434 -1.444 -.933 -2.87 -1.505 -4.272 C -.139 -4.297 1.306 -4.062 2.618 -4.556 C 3.497 -5.104 4.225 -5.855 5.116 -6.403 C 7.012 -5.904 8.829 -5.14 10.701 -4.55 C 6.59 -4.742 2.895 -2.756 0 0 M -10.869 3.118 C -10.009 -.921 -8.179 -5.187 -4.525 -7.433 C -1.848 -9.039 1.396 -8.07 4.009 -6.824 C 2.696 -4.646 .042 -4.971 -2.094 -5.314 C -.782 -6.163 .801 -6.271 2.312 -6.458 C .692 -6.765 -1.077 -6.969 -2.558 -6.084 C -5.157 -4.478 -6.59 -1.667 -8.154 .843 C -8.757 1.92 -9.695 2.732 -10.869 3.118 M -3.857 8.287 C -1.354 4.009 1.216 -.8 6.001 -2.883 C 8.396 -4.194 11.206 -3.532 13.649 -2.72 C 9.479 -.938 5.272 .915 1.649 3.689 C -.276 5.116 -1.986 6.801 -3.857 8.287 M -6.439 10.165 C -5.446 6.741 -5.109 1.788 -.74 1.048 C -2.215 4.304 -4.057 7.487 -6.439 10.165 M -10.821 8.955 C -11.104 7.204 -11.188 5.423 -10.989 3.659 C -9.347 3.226 -8.053 2.137 -6.891 .945 C -5.988 -1.144 -4.7 -3.353 -2.569 -4.381 C -1.606 -3.075 -1.095 -1.54 -.824 .042 C -1.89 .638 -2.973 1.21 -4.062 1.758 C -4.057 1.3 -4.044 .379 -4.038 -.078 C -4.839 2.78 -5.771 5.604 -6.765 8.39 C -7.246 9.895 -8.552 10.821 -9.924 11.441 C -10.225 10.616 -10.526 9.786 -10.821 8.955 M -9.184 12.88 C -10.526 12.205 -7.836 10.616 -7.511 11.76 C -7.667 12.477 -8.462 13.036 -9.184 12.88 M -20.035 17.742 C -18.308 17.538 -16.574 17.321 -14.871 16.948 C -10.346 15.864 -6.03 14.005 -2.082 11.55 C -.535 10.574 .981 9.539 2.365 8.342 C -.162 9.257 -2.569 10.479 -5.128 11.303 C 1.06 4.376 9.353 -.854 18.471 -2.847 C 20.716 -3.37 23.038 -3.467 25.277 -4.032 C 25.127 -4.05 24.838 -4.08 24.693 -4.099 C 19.12 -4.514 13.439 -4.797 8.113 -6.645 C 5.802 -7.414 3.623 -8.516 1.378 -9.442 C -.62 -10.207 -2.985 -10.249 -4.778 -8.974 C -12 -4.447 -14.42 6.079 -10.207 13.427 C -13.463 14.914 -16.81 16.195 -20.035 17.742 " fill="#030101"/>
<path transform="matrix(1,0,0,-1,286.9121,325.26759)" d="M 0 0 C .56 -.434 1.132 -.866 1.697 -1.3 C -.211 -3.503 -.572 -7.09 1.655 -9.214 C 3.611 -11.303 6.867 -11.025 9.13 -9.611 C 9.948 -9.058 10.761 -8.371 10.436 -7.282 C 10.616 -6.12 10.803 -4.965 10.995 -3.81 C 11.031 -5.97 11.646 -8.582 9.846 -10.237 C 7.318 -13.156 2.396 -13.33 -.331 -10.61 C -3.431 -7.896 -3.244 -2.527 0 0 " fill="#b56453"/>
<path transform="matrix(1,0,0,-1,296.042,334.8789)" d="M 0 0 C -1.842 .698 -1.589 3.238 .487 3.311 L 1.306 2.329 C 1.631 1.24 .818 .554 0 0 " fill="#fbfeff"/>
<path transform="matrix(1,0,0,-1,316.9863,338.2793)" d="M 0 0 C 1.709 2.63 4.074 5.05 7.144 5.988 C 8.082 6.295 9.473 6.187 9.653 4.978 C 10.177 -.048 7.336 -4.508 6.072 -9.202 C 5.482 -11.356 4.393 -13.33 3.087 -15.13 C 3.388 -15.148 3.996 -15.19 4.303 -15.208 C 4.881 -15.358 5.458 -15.521 6.042 -15.702 C 3.129 -15.942 .192 -15.906 -2.673 -16.521 C -2.601 -15.756 -2.955 -15.063 -3.202 -14.378 C -4.165 -12.151 -3.28 -9.695 -3.046 -7.408 C -1.938 -8.293 -.795 -9.846 .824 -9.269 C 2.919 -8.624 3.905 -6.476 5.109 -4.839 L 5.248 -4.634 L 5.693 -4.008 C 4.982 -6.439 3.508 -8.961 .992 -9.828 C -.367 -10.382 -1.668 -9.521 -2.883 -9.033 C -3.244 -11.267 -3.587 -13.722 -1.956 -15.575 C -.548 -15.371 .86 -15.19 2.274 -15.04 C 4.971 -12.013 6.114 -7.992 6.716 -4.068 C 7.053 -1.559 7.065 1.077 6.036 3.437 L 6.15 2.732 C 5.452 3.027 4.7 3.804 3.905 3.461 C 4.339 1.667 4.767 -.139 4.893 -1.992 C 3.357 -2.365 2.269 -3.689 3.665 -5.02 C 2.864 -5.766 2.185 -6.681 1.215 -7.222 C -.151 -7.493 -1.529 -6.993 -2.89 -6.896 C -2.167 -4.508 -1.307 -2.137 0 0 " fill="#010102"/>
<path transform="matrix(1,0,0,-1,320.8916,334.81843)" d="M 0 0 C .795 .343 1.547 -.434 2.245 -.729 C 2.769 -2.961 2.66 -5.332 1.788 -7.469 L 1.343 -8.095 C 1.24 -7.21 1.113 -6.331 .987 -5.453 C .861 -3.6 .434 -1.794 0 0 " fill="#7b4b42"/>
<path transform="matrix(1,0,0,-1,323.0225,334.8428)" d="M 0 0 C 1.029 -2.359 1.017 -4.995 .68 -7.505 C .078 -11.429 -1.065 -15.449 -3.762 -18.477 C -5.176 -18.627 -6.584 -18.808 -7.992 -19.012 C -9.623 -17.158 -9.28 -14.703 -8.919 -12.47 C -7.704 -12.957 -6.403 -13.818 -5.044 -13.265 C -2.528 -12.397 -1.054 -9.876 -.343 -7.444 C .529 -5.308 .638 -2.937 .114 -.704 Z " fill="#fffeff"/>
<path transform="matrix(1,0,0,-1,320.6514,343.2988)" d="M 0 0 C -1.396 1.33 -.308 2.654 1.228 3.027 C 1.354 2.149 1.48 1.271 1.583 .386 L 1.444 .181 C 1.083 .139 .36 .043 0 0 " fill="#f5fefc"/>
<path transform="matrix(1,0,0,-1,269.6094,342.73243)" d="M 0 0 C 2.232 .632 4.712 .938 6.873 -.127 C 9.226 -1.3 11.874 -2.757 12.789 -5.398 C 8.841 -2.943 4.525 -1.084 0 0 " fill="#d9d8d3"/>
<path transform="matrix(1,0,0,-1,320.6514,343.2988)" d="M 0 0 C .36 .043 1.083 .139 1.444 .181 C .24 -1.456 -.746 -3.604 -2.841 -4.249 C -4.46 -4.826 -5.604 -3.273 -6.711 -2.389 L -6.555 -1.877 C -5.194 -1.974 -3.816 -2.474 -2.45 -2.202 C -1.48 -1.661 -.801 -.746 0 0 " fill="#9e6153"/>
<path transform="matrix(1,0,0,-1,384.1152,346.49409)" d="M 0 0 C 2.148 .782 4.441 .975 6.692 1.27 C 7.204 .463 7.715 -.355 8.227 -1.18 C 5.939 -1.631 3.671 -2.293 1.323 -2.329 C .523 -1.823 .229 -.854 0 0 " fill="#8b1638"/>
<path transform="matrix(1,0,0,-1,417.0537,346.7471)" d="M 0 0 C -.386 .801 .915 .873 1.42 .867 C 2.72 .867 4.014 .65 5.296 .434 C 3.785 -.584 1.564 -1.233 0 0 " fill="#fbfaf8"/>
<path transform="matrix(1,0,0,-1,405.209,348.13093)" d="M 0 0 C 2.179 .752 4.454 1.317 6.777 1.354 C 5.146 -.675 2.287 -.439 0 0 " fill="#fbfaf8"/>
<path transform="matrix(1,0,0,-1,408.9287,349.9971)" d="M 0 0 C 2.738 1.722 6.072 2.017 9.112 .963 C 7.812 -1.559 4.803 -1.661 2.317 -1.637 C 1.138 -1.907 .62 -.704 0 0 " fill="#fbfaf8"/>
<path transform="matrix(1,0,0,-1,420.3574,350.25)" d="M 0 0 C 1.012 1.276 2.401 2.155 4.021 2.396 C 3.786 1.252 3.479 0 2.42 -.668 C 1.535 -.927 .789 -.246 0 0 " fill="#f8fdf9"/>
<path transform="matrix(1,0,0,-1,273.6592,350.7256)" d="M 0 0 C .295 .831 .597 1.661 .897 2.486 C 2.27 1.866 3.575 .939 4.057 -.565 C 5.05 -3.352 5.982 -6.175 6.783 -9.033 C 6.777 -8.576 6.765 -7.655 6.759 -7.197 C 7.849 -7.745 8.932 -8.317 9.997 -8.913 C 9.727 -10.495 9.215 -12.03 8.252 -13.336 C 6.121 -12.308 4.833 -10.099 3.931 -8.01 C 3.371 -5.019 2.028 -2.263 0 0 " fill="#b23f49"/>
<path transform="matrix(1,0,0,-1,278.041,349.5156)" d="M 0 0 C 2.383 -2.678 4.225 -5.861 5.699 -9.117 C 1.33 -8.377 .993 -3.424 0 0 " fill="#6a2028"/>
<path transform="matrix(1,0,0,-1,402.3506,350.0928)" d="M 0 0 C 1.354 .427 2.805 -.091 4.008 -.747 C 4.544 -1.902 3.22 -2.239 2.449 -2.667 C .951 -3.6 -.614 -1.337 0 0 " fill="#fbfaf6"/>
<path transform="matrix(1,0,0,-1,273.4912,356.02149)" d="M 0 0 C -.199 1.764 -.114 3.545 .168 5.296 C 2.196 3.033 3.539 .277 4.099 -2.714 C 2.937 -1.522 1.643 -.434 0 0 " fill="#92343d"/>
<path transform="matrix(1,0,0,-1,280.623,351.39363)" d="M 0 0 C 1.871 -1.486 3.581 -3.171 5.507 -4.598 C 9.13 -7.372 13.337 -9.226 17.507 -11.007 C 15.063 -11.819 12.253 -12.481 9.858 -11.17 C 5.073 -9.087 2.504 -4.278 0 0 " fill="#fefefe"/>
<path transform="matrix(1,0,0,-1,408.8447,354.5469)" d="M 0 0 C 2.461 1.607 5.561 1.974 8.401 1.354 C 6.192 -.668 2.75 .072 0 0 " fill="#f6f7f2"/>
<path transform="matrix(1,0,0,-1,273.6113,356.5625)" d="M 0 0 C 1.174 -.386 2.112 -1.198 2.715 -2.275 C 4.279 -4.785 5.712 -7.596 8.312 -9.202 C 9.792 -10.087 11.562 -9.883 13.181 -9.576 C 11.67 -9.389 10.087 -9.281 8.775 -8.433 C 10.911 -8.089 13.565 -7.765 14.878 -9.942 C 12.266 -11.188 9.021 -12.157 6.344 -10.551 C 2.69 -8.306 .86 -4.039 0 0 " fill="#fefefd"/>
<path transform="matrix(1,0,0,-1,143.3545,330.3428)" d="M 0 0 L 0 .104 C 0 1.675 1.108 2.702 2.583 2.702 C 3.886 2.702 4.824 2.084 4.928 .771 L 3.525 .771 C 3.449 1.312 3.149 1.607 2.583 1.607 C 1.879 1.607 1.441 1.08 1.441 .104 L 1.441 .015 C 1.441 -.951 1.851 -1.479 2.612 -1.479 C 3.164 -1.479 3.563 -1.194 3.639 -.59 L 4.976 -.59 C 4.89 -1.903 3.934 -2.583 2.626 -2.583 C .899 -2.583 0 -1.556 0 0 M 6.688 .076 C 6.688 2.545 4.848 4.243 2.583 4.243 C .285 4.243 -1.556 2.535 -1.556 .052 C -1.556 -2.455 .347 -4.129 2.559 -4.129 C 4.8 -4.129 6.688 -2.431 6.688 .076 M -2.288 .052 C -2.288 2.726 -.143 4.861 2.583 4.861 C 5.337 4.861 7.435 2.74 7.435 .076 C 7.435 -2.649 5.275 -4.748 2.559 -4.748 C -.128 -4.748 -2.288 -2.664 -2.288 .052 " fill="#1d1d1b"/>
<path transform="matrix(1,0,0,-1,155.1831,325.6865)" d="M 0 0 L 5.903 0 L 5.903 -1.632 L 2.083 -1.632 L 2.083 -4.062 L 5.104 -4.062 L 5.104 -5.633 L 2.083 -5.633 L 2.083 -9.195 L 0 -9.195 Z " fill="#1d1d1b"/>
<path transform="matrix(1,0,0,-1,0,500)" d="M 162.523 174.313 L 164.621 174.313 L 164.621 165.11801 L 162.523 165.11801 Z " fill="#1d1d1b"/>
<path transform="matrix(1,0,0,-1,166.6528,325.6865)" d="M 0 0 L 5.904 0 L 5.904 -1.632 L 2.083 -1.632 L 2.083 -4.062 L 5.104 -4.062 L 5.104 -5.633 L 2.083 -5.633 L 2.083 -9.195 L 0 -9.195 Z " fill="#1d1d1b"/>
<path transform="matrix(1,0,0,-1,175.5508,331.3584)" d="M 0 0 L 2.431 0 L 1.223 3.973 Z M -.014 5.671 L 2.702 5.671 L 5.685 -3.524 L 3.511 -3.524 L 2.883 -1.479 L -.452 -1.479 L -1.08 -3.524 L -3.035 -3.524 Z " fill="#1d1d1b"/>
<path transform="matrix(1,0,0,-1,187.1489,327.30763)" d="M 0 0 L -2.483 0 L -2.483 1.622 L 4.576 1.622 L 4.576 0 L 2.098 0 L 2.098 -7.573 L 0 -7.573 Z " fill="#1d1d1b"/>
<path transform="matrix(1,0,0,-1,193.0239,325.6865)" d="M 0 0 L 2.754 0 L 4.9 -5.723 L 7.021 0 L 9.724 0 L 9.724 -9.195 L 7.654 -9.195 L 7.654 -2.74 L 5.104 -9.195 L 4.424 -9.195 L 1.865 -2.74 L 1.865 -9.195 L 0 -9.195 Z " fill="#1d1d1b"/>
</g>
</g>
</g>
</svg>
